<?xml version="1.0" encoding="UTF-8" standalone="no"?>
<!DOCTYPE svg PUBLIC "-//W3C//DTD SVG 1.1//EN" "http://www.w3.org/Graphics/SVG/1.1/DTD/svg11.dtd">
<svg width="100%" height="100%" viewBox="0 0 185 185" version="1.1" xmlns="http://www.w3.org/2000/svg" xmlns:xlink="http://www.w3.org/1999/xlink" xml:space="preserve" xmlns:serif="http://www.serif.com/" style="fill-rule:evenodd;clip-rule:evenodd;stroke-linejoin:round;stroke-miterlimit:2;">
    <g transform="matrix(1,0,0,1,-659,-213)">
        <g id="shape9" transform="matrix(1.00851,0,0,1.00851,924.858,213.372)">
            <rect x="-263.443" y="0" width="182.448" height="182.448" style="fill:none;"/>
            <g id="shape91" serif:id="shape9" transform="matrix(1.09851,0,0,1.09851,-263.443,0.409515)">
                <rect x="0" y="0" width="164.321" height="164.321" style="fill:none;"/>
                <g transform="matrix(0.902638,0,0,0.902638,-80.4436,-296.026)">
                    <path d="M142.231,490.684C135.326,490.642 129.018,486.766 125.859,480.626C122.701,474.486 123.217,467.1 127.198,461.459C144.447,437.017 168.676,402.685 183.866,381.161C197.309,362.113 215.788,353.541 230.341,349.696C235.894,348.245 241.807,349.451 246.35,352.959C250.892,356.468 253.553,361.884 253.553,367.624C253.56,395.887 253.56,445.712 253.56,472.711C253.56,477.647 251.591,482.38 248.091,485.859C244.59,489.339 239.846,491.279 234.91,491.248C211.661,491.107 171.432,490.862 142.231,490.684Z" style="fill:rgb(82,198,72);"/>
                </g>
            </g>
        </g>
    </g>
</svg>
