<?xml version="1.0" encoding="UTF-8" standalone="no"?>
<!DOCTYPE svg PUBLIC "-//W3C//DTD SVG 1.1//EN" "http://www.w3.org/Graphics/SVG/1.1/DTD/svg11.dtd">
<svg width="100%" height="100%" viewBox="0 0 185 185" version="1.1" xmlns="http://www.w3.org/2000/svg" xmlns:xlink="http://www.w3.org/1999/xlink" xml:space="preserve" xmlns:serif="http://www.serif.com/" style="fill-rule:evenodd;clip-rule:evenodd;stroke-linejoin:round;stroke-miterlimit:2;">
    <g transform="matrix(1,0,0,1,-870,-213)">
        <g id="shape10" transform="matrix(1.00851,0,0,1.00851,1135.94,213.372)">
            <rect x="-263.443" y="0" width="182.448" height="182.448" style="fill:none;"/>
            <g id="shape101" serif:id="shape10" transform="matrix(1.09851,0,0,1.09851,-262.591,0.409515)">
                <rect x="0" y="0" width="164.321" height="164.321" style="fill:none;"/>
                <g transform="matrix(0.902638,0,0,0.902638,-316.877,-319.921)">
                    <path d="M405.42,381.213C411.929,381.615 418.259,378.993 422.577,374.105C427.256,368.841 434.288,365.424 442.079,365.424C449.871,365.424 456.903,368.841 461.58,374.106C465.898,378.993 472.229,381.615 478.738,381.213C485.769,380.798 493.157,383.354 498.666,388.864C504.176,394.373 506.732,401.761 506.317,408.792C505.915,415.301 508.537,421.631 513.425,425.949C518.689,430.627 522.106,437.659 522.106,445.451C522.106,453.242 518.689,460.274 513.424,464.952C508.537,469.27 505.915,475.601 506.317,482.11C506.732,489.141 504.176,496.529 498.666,502.038C493.157,507.548 485.769,510.104 478.738,509.689C472.229,509.286 465.898,511.909 461.581,516.796C456.902,522.06 449.871,525.477 442.079,525.477C434.288,525.477 427.256,522.06 422.578,516.795C418.26,511.908 411.929,509.286 405.42,509.689C398.389,510.104 391.001,507.548 385.492,502.038C379.982,496.529 377.426,489.141 377.841,482.11C378.244,475.601 375.621,469.27 370.734,464.953C365.47,460.274 362.053,453.242 362.053,445.451C362.053,437.659 365.47,430.628 370.734,425.95C375.622,421.632 378.244,415.301 377.841,408.792C377.426,401.761 379.982,394.373 385.492,388.864C391.001,383.354 398.389,380.798 405.42,381.213Z" style="fill:rgb(82,198,72);"/>
                </g>
            </g>
        </g>
    </g>
</svg>
