<?xml version="1.0" encoding="UTF-8" standalone="no"?>
<!DOCTYPE svg PUBLIC "-//W3C//DTD SVG 1.1//EN" "http://www.w3.org/Graphics/SVG/1.1/DTD/svg11.dtd">
<svg width="100%" height="100%" viewBox="0 0 185 185" version="1.1" xmlns="http://www.w3.org/2000/svg" xmlns:xlink="http://www.w3.org/1999/xlink" xml:space="preserve" xmlns:serif="http://www.serif.com/" style="fill-rule:evenodd;clip-rule:evenodd;stroke-linejoin:round;stroke-miterlimit:2;">
    <g transform="matrix(1,0,0,1,-1279,-213)">
        <g id="shape12" transform="matrix(1.00851,0,0,1.00851,1545.18,213.372)">
            <rect x="-263.443" y="0" width="182.448" height="182.448" style="fill:none;"/>
            <g id="shape121" serif:id="shape12" transform="matrix(1.09851,0,0,1.09851,-262.773,0.409515)">
                <rect x="0" y="0" width="164.321" height="164.321" style="fill:none;"/>
                <g transform="matrix(0.722306,0,0,0.722306,-631.732,-220.471)">
                    <path d="M980.411,331.651C981.741,328.439 984.875,326.345 988.351,326.345C991.828,326.345 994.962,328.439 996.292,331.65C998.086,335.981 999.998,340.597 1001.82,344.989C1006.56,356.444 1019.7,361.884 1031.15,357.139C1035.54,355.32 1040.16,353.408 1044.49,351.615C1047.7,350.285 1051.4,351.02 1053.86,353.478C1056.31,355.937 1057.05,359.634 1055.72,362.845C1053.92,367.174 1052.01,371.789 1050.19,376.179C1047.91,381.681 1047.91,387.862 1050.19,393.364C1052.47,398.865 1056.84,403.237 1062.34,405.515C1066.74,407.334 1071.35,409.245 1075.68,411.038C1078.89,412.369 1080.99,415.503 1080.99,418.979C1080.99,422.455 1078.89,425.59 1075.68,426.92C1071.35,428.713 1066.73,430.625 1062.34,432.444C1056.84,434.722 1052.47,439.093 1050.19,444.595C1047.91,450.097 1047.91,456.278 1050.19,461.779C1052.01,466.17 1053.92,470.784 1055.72,475.113C1057.05,478.325 1056.31,482.022 1053.86,484.48C1051.4,486.938 1047.7,487.674 1044.49,486.344C1040.16,484.55 1035.54,482.638 1031.15,480.82C1019.7,476.075 1006.56,481.514 1001.82,492.97C999.998,497.361 998.086,501.977 996.292,506.308C994.962,509.519 991.828,511.613 988.351,511.613C984.875,511.613 981.741,509.519 980.411,506.307C978.617,501.978 976.706,497.362 974.887,492.971C972.608,487.47 968.237,483.099 962.736,480.82C957.235,478.541 951.053,478.541 945.552,480.82C941.161,482.639 936.546,484.551 932.217,486.344C929.005,487.674 925.308,486.939 922.85,484.481C920.392,482.023 919.656,478.326 920.987,475.114C922.78,470.785 924.692,466.169 926.51,461.778C931.255,450.323 925.815,437.189 914.36,432.444C909.969,430.625 905.353,428.713 901.024,426.92C897.812,425.59 895.718,422.455 895.718,418.979C895.718,415.503 897.812,412.369 901.024,411.038C905.353,409.245 909.968,407.333 914.359,405.515C925.815,400.77 931.255,387.636 926.51,376.18C924.692,371.789 922.78,367.174 920.986,362.844C919.656,359.633 920.392,355.936 922.85,353.478C925.308,351.02 929.005,350.284 932.216,351.614C936.546,353.408 941.161,355.32 945.552,357.138C957.008,361.883 970.142,356.443 974.887,344.987C976.706,340.596 978.617,335.98 980.411,331.651Z" style="fill:rgb(82,198,72);"/>
                </g>
            </g>
        </g>
    </g>
</svg>
