<?xml version="1.0" standalone="no"?>
<!DOCTYPE svg PUBLIC "-//W3C//DTD SVG 20010904//EN"
 "http://www.w3.org/TR/2001/REC-SVG-20010904/DTD/svg10.dtd">
<svg version="1.0" xmlns="http://www.w3.org/2000/svg"
 width="251.000000pt" height="195.000000pt" viewBox="0 0 251.000000 195.000000"
 preserveAspectRatio="xMidYMid meet">
<metadata>
Created by potrace 1.16, written by Peter Selinger 2001-2019
</metadata>
<g transform="translate(0.000000,195.000000) scale(0.100000,-0.100000)"
fill="#000000" stroke="none">
<path d="M1249 1877 c-42 -16 -81 -45 -108 -79 -39 -50 -105 -198 -132 -295
-15 -57 -40 -128 -56 -159 -26 -52 -32 -58 -84 -75 -31 -10 -90 -25 -131 -34
-85 -17 -191 -61 -293 -120 -56 -33 -80 -55 -131 -125 -74 -98 -89 -147 -75
-232 10 -60 42 -119 100 -183 42 -47 126 -115 142 -115 8 0 9 -11 4 -32 -23
-107 -14 -148 30 -148 29 0 45 26 45 74 0 19 4 37 8 40 5 3 39 -10 78 -28 38
-18 103 -41 144 -52 127 -32 330 -21 330 19 0 6 9 20 20 32 15 16 28 20 55 17
19 -2 35 -8 35 -13 0 -13 57 -11 82 2 24 13 61 43 107 88 28 26 39 31 51 23
90 -64 231 -121 335 -137 79 -12 83 -14 90 -44 7 -34 39 -66 58 -58 16 6 29
59 21 81 -4 9 5 16 29 20 80 15 220 143 257 235 27 67 5 199 -48 290 -33 57
-130 160 -195 208 -28 21 -118 72 -201 113 -87 43 -155 83 -161 95 -6 11 -18
31 -26 45 -19 28 -33 87 -50 205 -23 167 -74 274 -151 319 -54 31 -130 41
-179 23z m131 -77 c66 -34 96 -98 121 -253 6 -43 16 -80 20 -83 5 -3 9 -14 9
-24 0 -25 46 -129 68 -153 24 -27 81 -62 200 -124 134 -69 168 -92 223 -144
49 -47 125 -137 152 -181 51 -82 62 -199 24 -259 -46 -74 -121 -143 -183 -168
-43 -17 -152 -8 -245 20 -62 18 -259 113 -259 124 0 2 11 15 23 29 42 45 109
196 113 251 1 28 3 52 3 54 1 3 13 -7 29 -21 41 -38 65 -48 122 -48 76 0 134
-18 179 -56 42 -36 61 -43 61 -20 0 24 -48 73 -92 94 -24 11 -78 24 -120 30
-71 9 -81 13 -123 53 -34 32 -45 49 -45 73 0 47 -25 132 -49 165 -33 47 -106
102 -146 111 -45 10 -129 -9 -179 -40 -41 -25 -81 -82 -105 -149 -17 -45 -41
-67 -41 -36 0 22 -87 107 -135 130 -57 29 -144 26 -216 -7 -43 -20 -62 -36
-87 -75 -40 -62 -62 -124 -62 -174 0 -39 0 -39 -59 -39 -65 0 -116 -14 -106
-30 3 -5 32 -10 63 -10 93 0 98 -4 123 -79 29 -88 41 -111 81 -150 96 -95 224
-169 341 -195 29 -7 36 -23 12 -32 -8 -4 -15 -12 -15 -20 0 -21 -54 -18 -177
12 -148 35 -184 48 -290 104 -119 62 -177 108 -237 188 -45 60 -48 69 -50 126
-1 58 2 65 45 126 71 98 142 155 277 218 34 16 68 34 75 39 6 5 32 15 57 22
78 23 124 44 168 80 46 37 67 75 102 186 49 154 143 304 212 338 44 22 71 21
118 -3z m122 -641 c15 -10 30 -19 33 -19 22 0 72 -105 56 -115 -5 -3 -23 3
-39 12 -25 14 -34 15 -57 5 -26 -12 -27 -16 -21 -57 3 -25 3 -45 1 -45 -3 0
-30 20 -61 45 -52 43 -59 46 -107 43 -47 -3 -52 -5 -55 -28 -2 -14 -8 -29 -13
-35 -5 -5 -9 -19 -9 -32 0 -13 -7 -26 -15 -29 -8 -4 -15 -16 -15 -29 0 -13 -7
-25 -15 -29 -8 -3 -15 -18 -15 -33 0 -51 40 -112 126 -191 46 -42 84 -82 84
-87 0 -6 -13 -18 -29 -28 -16 -9 -42 -31 -58 -49 -37 -41 -70 -61 -78 -48 -3
6 -1 10 4 10 6 0 11 9 11 20 0 11 6 20 13 20 25 0 50 37 43 63 -7 28 -34 49
-89 66 -30 10 -37 17 -32 31 8 26 -21 67 -67 97 -39 24 -40 24 -93 9 -63 -19
-75 -15 -137 38 -44 38 -110 78 -150 90 -38 11 -12 114 45 182 29 34 124 84
160 84 59 0 117 -32 178 -98 69 -75 58 -78 119 29 38 67 78 103 137 125 46 17
108 9 145 -17z m60 -176 c23 -21 23 -55 -2 -132 -24 -75 -88 -201 -107 -208
-7 -3 -13 -11 -13 -19 0 -22 -26 -16 -58 14 -16 15 -52 47 -80 71 -63 55 -80
84 -62 107 8 8 15 36 17 62 1 25 7 50 13 56 5 5 10 20 10 33 0 17 6 23 23 23
22 0 48 -16 120 -73 26 -21 44 -28 69 -25 30 3 33 6 32 33 -1 17 -5 40 -9 53
-6 17 -4 22 11 22 9 0 26 -7 36 -17z m74 -70 c-10 -10 -19 5 -10 18 6 11 8 11
12 0 2 -7 1 -15 -2 -18z m-839 -167 c110 -70 125 -76 204 -76 53 0 77 -4 91
-17 24 -21 23 -33 -2 -33 -11 0 -20 -7 -20 -15 0 -17 15 -24 100 -50 85 -26
109 -55 46 -55 -38 0 -55 -15 -37 -33 44 -44 -36 -34 -137 17 -123 61 -189
106 -248 168 -43 45 -94 118 -94 134 0 14 38 -1 97 -40z m680 -182 c7 -19 -4
-29 -39 -38 -23 -5 -28 -3 -28 12 0 38 54 59 67 26z m-923 -100 c5 -14 -16
-64 -27 -64 -2 0 -3 18 -4 40 -2 42 18 57 31 24z m1384 -116 c-5 -15 -23 -11
-26 6 -2 11 2 14 13 10 9 -4 14 -11 13 -16z"/>
<path d="M1110 1555 c-13 -34 -4 -52 32 -64 45 -16 65 -14 88 9 38 38 16 67
-29 38 -23 -14 -51 -4 -58 22 -7 27 -22 25 -33 -5z"/>
<path d="M1312 1513 c2 -22 11 -31 40 -40 55 -18 98 -1 98 38 0 33 -7 36 -36
14 -25 -19 -48 -19 -64 0 -21 25 -42 18 -38 -12z"/>
<path d="M1202 1358 c4 -30 65 -47 104 -30 38 18 24 37 -24 34 -22 -1 -43 2
-47 8 -12 20 -37 11 -33 -12z"/>
</g>
</svg>
