<?xml version="1.0" encoding="UTF-8" standalone="no"?>
<!DOCTYPE svg PUBLIC "-//W3C//DTD SVG 1.1//EN" "http://www.w3.org/Graphics/SVG/1.1/DTD/svg11.dtd">
<svg width="100%" height="100%" viewBox="0 0 185 184" version="1.1" xmlns="http://www.w3.org/2000/svg" xmlns:xlink="http://www.w3.org/1999/xlink" xml:space="preserve" xmlns:serif="http://www.serif.com/" style="fill-rule:evenodd;clip-rule:evenodd;stroke-linejoin:round;stroke-miterlimit:2;">
    <g transform="matrix(1,0,0,1,-436,0)">
        <g id="shape3" transform="matrix(1.00851,0,0,1.00851,702.066,5.68434e-14)">
            <rect x="-263.443" y="0" width="182.448" height="182.448" style="fill:none;"/>
            <g id="shape31" serif:id="shape3" transform="matrix(1.09851,0,0,1.09851,-262.581,0)">
                <rect x="0" y="0" width="164.321" height="164.321" style="fill:none;"/>
                <g transform="matrix(0.902638,0,0,2.63271,-564.614,-198.258)">
                    <path d="M652.283,133.134C644.888,133.134 638.893,131.079 638.893,128.543C638.893,118.475 638.893,94.552 638.893,84.484C638.893,81.948 644.888,79.893 652.283,79.893C656.115,79.893 660.291,79.893 664.123,79.893C667.674,79.893 671.08,80.377 673.591,81.238C676.102,82.099 677.513,83.266 677.513,84.484C677.513,85.693 677.513,86.997 677.513,88.206C677.513,89.424 678.924,90.591 681.435,91.452C683.946,92.313 687.352,92.797 690.903,92.797C694.86,92.797 699.19,92.797 703.147,92.797C710.542,92.797 716.537,94.852 716.537,97.388C716.537,98.848 716.537,100.462 716.537,101.922C716.537,104.458 722.532,106.513 729.927,106.513L743.154,106.513C746.705,106.513 750.111,106.997 752.622,107.858C755.133,108.719 756.544,109.886 756.544,111.104L756.544,115.302C756.544,116.52 757.955,117.687 760.466,118.548C762.977,119.409 766.383,119.893 769.934,119.893C773.46,119.893 777.265,119.893 780.791,119.893C784.342,119.893 787.748,120.377 790.259,121.238C792.77,122.099 794.181,123.266 794.181,124.484C794.181,125.798 794.181,127.229 794.181,128.543C794.181,129.761 792.77,130.928 790.259,131.789C787.748,132.65 784.342,133.134 780.791,133.134C751.426,133.134 681.648,133.134 652.283,133.134Z" style="fill:rgb(82,198,72);"/>
                </g>
            </g>
        </g>
    </g>
</svg>
