<?xml version="1.0" encoding="UTF-8" standalone="no"?>
<!DOCTYPE svg PUBLIC "-//W3C//DTD SVG 1.1//EN" "http://www.w3.org/Graphics/SVG/1.1/DTD/svg11.dtd">
<svg width="100%" height="100%" viewBox="0 0 183 183" version="1.1" xmlns="http://www.w3.org/2000/svg" xmlns:xlink="http://www.w3.org/1999/xlink" xml:space="preserve" xmlns:serif="http://www.serif.com/" style="fill-rule:evenodd;clip-rule:evenodd;stroke-linejoin:round;stroke-miterlimit:2;">
    <g transform="matrix(1,0,0,1,-222,-444)">
        <g id="shape10" transform="matrix(1.10786,0,0,1.10786,222.86,444.413)">
            <rect x="0" y="0" width="164.321" height="164.321" style="fill:none;"/>
            <g transform="matrix(0.902638,0,0,0.902638,-316.877,-319.921)">
                <path d="M417.074,385.083C419.19,374.089 429.672,365.424 442.079,365.424C454.487,365.424 464.968,374.089 467.084,385.083C476.354,378.806 489.893,380.09 498.666,388.864C507.44,397.637 508.724,411.176 502.447,420.446C513.441,422.562 522.106,433.043 522.106,445.451C522.106,457.858 513.441,468.34 502.447,470.456C508.724,479.726 507.44,493.265 498.666,502.038C489.893,510.812 476.354,512.096 467.084,505.818C464.968,516.812 454.487,525.477 442.079,525.477C429.672,525.477 419.19,516.812 417.074,505.818C407.804,512.096 394.265,510.812 385.492,502.038C376.718,493.265 375.434,479.726 381.712,470.456C370.718,468.34 362.053,457.858 362.053,445.451C362.053,433.043 370.718,422.562 381.712,420.446C375.434,411.176 376.718,397.637 385.492,388.864C394.265,380.09 407.804,378.806 417.074,385.083Z" style="fill:rgb(82,198,72);"/>
            </g>
        </g>
    </g>
</svg>
