<?xml version="1.0" encoding="UTF-8" standalone="no"?>
<!DOCTYPE svg PUBLIC "-//W3C//DTD SVG 1.1//EN" "http://www.w3.org/Graphics/SVG/1.1/DTD/svg11.dtd">
<svg width="100%" height="100%" viewBox="0 0 184 184" version="1.1" xmlns="http://www.w3.org/2000/svg" xmlns:xlink="http://www.w3.org/1999/xlink" xml:space="preserve" xmlns:serif="http://www.serif.com/" style="fill-rule:evenodd;clip-rule:evenodd;stroke-linejoin:round;stroke-miterlimit:2;">
    <g id="shape1" transform="matrix(1.00851,0,0,1.00851,265.685,0)">
        <rect x="-263.443" y="0" width="182.448" height="182.448" style="fill:none;"/>
        <g id="shape11" serif:id="shape1" transform="matrix(1.09851,0,0,1.09851,-262.549,0)">
            <rect x="0" y="0" width="164.321" height="164.321" style="fill:none;"/>
            <g transform="matrix(0.942461,2.2819e-32,-2.2819e-32,0.942461,-93.7594,-73.3637)">
                <path d="M155.46,221.877C149.858,210.81 140.869,201.821 129.802,196.219C116.359,189.474 107.506,178.013 107.506,165.019C107.506,152.026 116.359,140.564 129.802,133.819C140.869,128.217 149.858,119.228 155.46,108.161C162.205,94.718 173.666,85.865 186.66,85.865C199.654,85.865 211.115,94.718 217.86,108.161C223.462,119.228 232.451,128.217 243.518,133.819C256.961,140.564 265.814,152.026 265.814,165.019C265.814,178.013 256.961,189.474 243.518,196.219C232.451,201.821 223.462,210.81 217.86,221.877C211.115,235.32 199.654,244.173 186.66,244.173C173.666,244.173 162.205,235.32 155.46,221.877Z" style="fill:rgb(82,198,72);"/>
            </g>
        </g>
    </g>
</svg>
