<?xml version="1.0" encoding="UTF-8"?>
<svg id="Ebene_1" data-name="Ebene 1" xmlns="http://www.w3.org/2000/svg" viewBox="0 0 24.18 24.18">
  <defs>
    <style>
      .cls-1 {
        stroke-width: 0px;
      }
    </style>
  </defs>
  <g id="heart-outline">
    <path class="cls-1" d="M12.09,19.93c-.25,0-.49-.07-.71-.22-3.88-2.63-7.83-5.98-7.78-10.88,0-2.48,2.01-4.53,4.5-4.57,1.6.11,3.05.9,3.99,2.12.94-1.22,2.38-2.01,3.94-2.12.02,0,.03,0,.05,0,2.48.04,4.5,2.1,4.5,4.58.05,4.89-3.91,8.24-7.79,10.87-.21.15-.46.22-.71.22ZM8.06,5.45c-1.78.03-3.27,1.55-3.26,3.38-.04,4.34,3.65,7.43,7.26,9.88,3.68-2.45,7.37-5.54,7.33-9.87,0-1.83-1.47-3.34-3.29-3.39-1.47.12-2.79,1-3.47,2.31-.1.2-.31.33-.53.33h0c-.22,0-.43-.13-.53-.33-.68-1.32-2.02-2.2-3.5-2.31Z"/>
  </g>
</svg>