<?xml version="1.0" encoding="UTF-8"?>
<svg id="Ebene_1" data-name="Ebene 1" xmlns="http://www.w3.org/2000/svg" viewBox="0 0 24.18 24.18">
  <defs>
    <style>
      .cls-1 {
        stroke-width: 0px;
      }
    </style>
  </defs>
  <g id="Pfad_52" data-name="Pfad 52">
    <path class="cls-1" d="M12.49,20.75c-.3,0-.55-.25-.55-.55v-8.1H3.84c-.3,0-.55-.25-.55-.55s.25-.55.55-.55h8.1v-3.29c0-2.42,1.97-4.39,4.39-4.39s4.39,1.97,4.39,4.39-1.97,4.39-4.39,4.39h-3.29v8.1c0,.3-.25.55-.55.55ZM13.04,11h3.29c1.82,0,3.29-1.48,3.29-3.29s-1.48-3.29-3.29-3.29-3.29,1.48-3.29,3.29v3.29Z"/>
  </g>
  <g id="Pfad_53" data-name="Pfad 53">
    <path class="cls-1" d="M6.73,14.93c-.13,0-.26-.05-.35-.15l-2.88-2.88c-.2-.2-.2-.51,0-.71l2.88-2.88c.2-.2.51-.2.71,0s.2.51,0,.71l-2.53,2.53,2.53,2.53c.2.2.2.51,0,.71-.1.1-.23.15-.35.15Z"/>
  </g>
</svg>