<?xml version="1.0" encoding="UTF-8"?>
<svg id="Ebene_1" data-name="Ebene 1" xmlns="http://www.w3.org/2000/svg" viewBox="0 0 24.18 24.18">
  <defs>
    <style>
      .cls-1 {
        stroke-width: 0px;
      }
    </style>
  </defs>
  <g id="finger-print-outline">
    <path class="cls-1" d="M17.53,4.78c-.08,0-.15-.02-.22-.06-3.23-1.82-7.18-1.82-10.41,0-.23.12-.51.04-.63-.19,0,0,0,0,0-.01-.12-.23-.04-.52.19-.66,3.5-1.97,7.78-1.98,11.29,0,.23.13.32.42.2.65-.07.17-.23.27-.41.28ZM4.15,9.88c-.1,0-.19-.03-.27-.09-.21-.16-.26-.46-.11-.68.89-1.33,2.1-2.42,3.51-3.17,3.02-1.57,6.62-1.58,9.64-.01,1.41.75,2.61,1.83,3.5,3.15.15.22.1.52-.11.68-.2.15-.49.11-.64-.09,0,0-.01-.02-.02-.02-.81-1.19-1.9-2.17-3.17-2.85-2.76-1.43-6.03-1.42-8.79.01-1.28.69-2.37,1.67-3.18,2.87-.07.13-.21.21-.37.2h0ZM10,21.59c-.13,0-.24-.05-.33-.15-.76-.75-1.4-1.61-1.88-2.56-.67-1.3-1.01-2.75-.98-4.21,0-2.92,2.37-5.29,5.29-5.29,2.92,0,5.29,2.37,5.29,5.29,0,.26-.21.47-.47.47s-.47-.21-.47-.47c-.05-2.41-2.04-4.32-4.45-4.26-2.33.05-4.21,1.93-4.26,4.26-.02,1.3.27,2.58.87,3.74.45.87,1.03,1.66,1.73,2.35.18.2.18.49,0,.69-.09.09-.21.14-.34.15ZM16.7,19.79c-1.03.03-2.05-.28-2.9-.86-1.39-.97-2.22-2.56-2.22-4.26-.01-.26.19-.48.45-.49s.48.19.49.45c0,.01,0,.03,0,.04,0,1.38.68,2.67,1.81,3.45.7.48,1.53.72,2.38.69.33,0,.65-.04.97-.1.25-.04.5.13.54.38,0,0,0,.01,0,.02.05.26-.12.51-.38.56-.37.07-.75.11-1.13.12h0ZM14.82,21.79s-.08,0-.12-.02c-3.24-.83-5.51-3.75-5.51-7.1,0-1.59,1.29-2.88,2.88-2.88,1.59,0,2.88,1.29,2.88,2.88.02,1.07.91,1.92,1.99,1.9,1.04-.02,1.88-.86,1.9-1.9-.04-3.7-3.08-6.67-6.78-6.63-2.65,0-5.06,1.52-6.18,3.91-.38.86-.57,1.78-.55,2.72,0,1.19.21,2.38.63,3.5.1.25-.02.52-.27.62,0,0,0,0,0,0-.24.09-.5-.03-.59-.26,0,0,0-.01,0-.02-.45-1.23-.68-2.53-.68-3.84-.02-1.08.2-2.15.64-3.15,1.8-3.87,6.4-5.55,10.27-3.74,2.68,1.25,4.42,3.92,4.47,6.88,0,1.59-1.29,2.88-2.88,2.88s-2.88-1.29-2.88-2.88c-.03-1.07-.93-1.92-2.01-1.88-1.03.03-1.85.86-1.88,1.88-.01,1.63.62,3.2,1.75,4.38.83.88,1.89,1.5,3.06,1.8.25.08.4.34.33.59-.04.21-.22.36-.44.37h0Z"/>
  </g>
</svg>