<?xml version="1.0" encoding="UTF-8"?>
<svg id="Ebene_1" data-name="Ebene 1" xmlns="http://www.w3.org/2000/svg" viewBox="0 0 24.18 24.18">
  <defs>
    <style>
      .cls-1 {
        stroke-width: 0px;
      }
    </style>
  </defs>
  <g id="Pfad_62" data-name="Pfad 62">
    <path class="cls-1" d="M18.21,17.39h.78c.23,0,.42-.19.42-.42V4.03c0-.23-.19-.42-.42-.42H6.65c-1.05,0-1.89.86-1.89,1.91v13.17s0,.06,0,.09c.1,1.02.96,1.8,1.99,1.8h12.24c.23,0,.42-.19.42-.42s-.19-.42-.42-.42h-.76c-.64-.01-1.16-.54-1.14-1.19.01-.62.5-1.12,1.12-1.14h0ZM5.61,5.51c0-.58.46-1.05,1.04-1.06h11.91v12.09h-.36l-11.45.04c-.41,0-.81.14-1.14.38V5.51ZM6.76,19.73c-.63.02-1.16-.48-1.18-1.11-.02-.63.48-1.16,1.11-1.18.02,0,.05,0,.07,0l9.78-.05c-.25.33-.39.74-.39,1.16,0,.42.14.83.39,1.17H6.76Z"/>
  </g>
</svg>