<?xml version="1.0" encoding="UTF-8"?>
<svg id="Ebene_1" data-name="Ebene 1" xmlns="http://www.w3.org/2000/svg" viewBox="0 0 24.18 24.18">
  <defs>
    <style>
      .cls-1 {
        stroke-width: 0px;
      }
    </style>
  </defs>
  <g id="Gruppe_40" data-name="Gruppe 40">
    <g id="Pfad_16" data-name="Pfad 16">
      <path class="cls-1" d="M8.06,15.64c-2.3,0-2.67-2.49-2.8-3.35-.26-1.72,0-3.17.73-4.08.43-.55,1.01-.87,1.65-.92,1.64-.13,2.86,2.19,3.2,4.43h0c.19,1.29.05,2.24-.45,2.91-.4.53-1,.86-1.8.98-.19.03-.36.04-.53.04ZM7.77,8.48s-.02,0-.03,0c-.31.03-.58.18-.81.47-.51.65-.68,1.8-.48,3.16.35,2.34,1.16,2.42,1.97,2.3.48-.07.81-.24,1.01-.51.29-.39.37-1.07.23-2.02h0c-.29-1.92-1.26-3.41-1.89-3.41Z"/>
    </g>
    <g id="Pfad_17" data-name="Pfad 17">
      <path class="cls-1" d="M9.42,20.07c-1.23,0-2.31-.89-2.52-2.13-.09-.49-.04-.89.19-1.21.36-.52.98-.64,1.64-.76l.21-.04c.15-.03.3-.07.44-.1.54-.13,1.16-.29,1.66.07.33.23.52.62.58,1.19.21,1.28-.56,2.55-1.79,2.94l-.12.03c-.1.01-.19.02-.28.02ZM10.31,16.85c-.12,0-.42.08-.64.13-.16.04-.33.08-.51.11l-.22.04c-.32.06-.79.15-.87.26-.02.02-.04.12,0,.32.12.7.74,1.19,1.43,1.14.65-.24,1.04-.92.92-1.6v-.05c-.03-.28-.09-.36-.09-.36,0,0-.02,0-.03,0Z"/>
    </g>
    <g id="Pfad_18" data-name="Pfad 18">
      <path class="cls-1" d="M16.12,12.48c-.17,0-.34-.01-.53-.04-.8-.12-1.41-.45-1.8-.98-.5-.67-.64-1.62-.45-2.91.33-2.23,1.58-4.52,3.19-4.43.65.05,1.22.36,1.65.9.73.92,1,2.37.74,4.1-.13.86-.5,3.35-2.8,3.35ZM16.42,5.32c-.63,0-1.6,1.5-1.89,3.41h0c-.14.95-.07,1.62.23,2.02.2.27.53.44,1.01.51.8.12,1.62.04,1.97-2.3.21-1.37.03-2.53-.49-3.18-.22-.28-.49-.43-.8-.46,0,0-.02,0-.03,0Z"/>
    </g>
    <g id="Pfad_19" data-name="Pfad 19">
      <path class="cls-1" d="M14.75,16.9c-.09,0-.18,0-.27-.01l-.12-.03c-1.24-.4-2.01-1.66-1.79-2.95.06-.57.25-.96.58-1.19.5-.36,1.11-.2,1.66-.07.14.04.29.07.44.1l.21.04c.66.12,1.29.24,1.65.76.22.32.28.73.18,1.23-.21,1.23-1.29,2.12-2.53,2.12ZM14.67,15.7c.68.03,1.31-.44,1.43-1.13.04-.21.02-.31,0-.34-.08-.11-.55-.2-.87-.26l-.22-.04c-.17-.03-.34-.07-.51-.12-.23-.06-.58-.14-.68-.11,0,0-.05.09-.07.35v.05c-.13.68.27,1.36.91,1.6Z"/>
    </g>
  </g>
</svg>