<?xml version="1.0" encoding="UTF-8" standalone="no"?>
<!DOCTYPE svg PUBLIC "-//W3C//DTD SVG 1.1//EN" "http://www.w3.org/Graphics/SVG/1.1/DTD/svg11.dtd">
<svg width="100%" height="100%" viewBox="0 0 203 202" version="1.1" xmlns="http://www.w3.org/2000/svg" xmlns:xlink="http://www.w3.org/1999/xlink" xml:space="preserve" xmlns:serif="http://www.serif.com/" style="fill-rule:evenodd;clip-rule:evenodd;stroke-linecap:round;stroke-linejoin:round;stroke-miterlimit:1.5;">
    <g transform="matrix(1,0,0,1,-5850,0)">
        <g id="icon-checkin" transform="matrix(8.33333,0,0,8.33333,5850.61,1.42109e-14)">
            <rect x="0" y="0" width="24.183" height="24.183" style="fill:none;"/>
            <g id="Ebene-1" serif:id="Ebene 1">
            </g>
            <g transform="matrix(0.140697,0,0,0.140697,-825.326,-2.08554)">
                <path d="M5997.24,101.697L5997.24,137.459C5997.24,142.522 5993.13,146.633 5988.07,146.633L5914.68,146.633C5909.62,146.633 5905.51,142.522 5905.51,137.459L5905.51,64.07C5905.51,59.007 5909.62,54.896 5914.68,54.896L5971.14,54.896" style="fill:none;stroke:black;stroke-width:8.53px;"/>
            </g>
            <g transform="matrix(0.140697,0,0,0.140697,-825.326,-2.08554)">
                <path d="M5941.08,94.425L5956.06,110.398L6004.57,57.086" style="fill:none;stroke:black;stroke-width:8.53px;"/>
            </g>
        </g>
    </g>
</svg>
