<?xml version="1.0" encoding="UTF-8"?>
<svg id="Ebene_1" data-name="Ebene 1" xmlns="http://www.w3.org/2000/svg" viewBox="0 0 24.18 24.18">
  <defs>
    <style>
      .cls-1 {
        stroke-width: 0px;
      }
    </style>
  </defs>
  <g id="Gruppe_159" data-name="Gruppe 159">
    <g id="flash-outline">
      <path class="cls-1" d="M9.97,19.34s-.09,0-.13-.01c-.31-.07-.51-.38-.44-.69l.98-5.4h-3.84c-.19,0-.37-.11-.45-.28s-.06-.38.06-.53L13.76,3.02h0c.13-.15.38-.25.56-.21.32.06.53.36.47.68l-.99,5.42h3.84c.19,0,.37.11.45.28s.06.38-.06.53l-7.6,9.4c-.09.12-.3.22-.45.22ZM10.39,18.8v.03s0-.02,0-.03ZM7.59,12.23h3.39c.15,0,.29.07.38.18.1.11.13.26.11.41l-.8,4.4,5.92-7.32h-3.39c-.15,0-.29-.07-.38-.18-.09-.11-.13-.26-.11-.41l.81-4.4-5.92,7.32ZM14.15,3.33h0,0Z"/>
    </g>
  </g>
</svg>