<?xml version="1.0" encoding="UTF-8" standalone="no"?>
<!DOCTYPE svg PUBLIC "-//W3C//DTD SVG 1.1//EN" "http://www.w3.org/Graphics/SVG/1.1/DTD/svg11.dtd">
<svg width="100%" height="100%" viewBox="0 0 81 81" version="1.1" xmlns="http://www.w3.org/2000/svg" xmlns:xlink="http://www.w3.org/1999/xlink" xml:space="preserve" xmlns:serif="http://www.serif.com/" style="fill-rule:evenodd;clip-rule:evenodd;stroke-linejoin:round;stroke-miterlimit:2;">
    <g transform="matrix(1,0,0,1,-447,-182)">
        <g id="pause" transform="matrix(0.0520833,0,0,0.0390625,447.253,182.425)">
            <rect x="0" y="0" width="1536" height="2048" style="fill:none;"/>
            <g transform="matrix(33.0903,0,0,44.1205,484.659,641.808)">
                <g id="icons">
                    <g>
                        <g transform="matrix(0.58023,0,0,0.58023,-270.794,-117.035)">
                            <path d="M475.929,201.067C476.861,201.067 477.754,201.437 478.413,202.096C479.072,202.755 479.442,203.648 479.442,204.58C479.442,210.571 479.442,222.698 479.442,228.689C479.442,229.62 479.072,230.514 478.413,231.172C477.754,231.831 476.861,232.201 475.929,232.201C473.011,232.201 468.88,232.201 465.962,232.201C465.03,232.201 464.137,231.831 463.478,231.172C462.82,230.514 462.45,229.62 462.45,228.689C462.45,222.698 462.45,210.571 462.45,204.58C462.45,203.648 462.82,202.755 463.478,202.096C464.137,201.437 465.03,201.067 465.962,201.067C468.88,201.067 473.011,201.067 475.929,201.067Z"/>
                        </g>
                        <g transform="matrix(0.58023,0,0,0.58023,-258.594,-117.035)">
                            <path d="M475.929,201.067C476.861,201.067 477.754,201.437 478.413,202.096C479.072,202.755 479.442,203.648 479.442,204.58C479.442,210.571 479.442,222.698 479.442,228.689C479.442,229.62 479.072,230.514 478.413,231.172C477.754,231.831 476.861,232.201 475.929,232.201C473.011,232.201 468.88,232.201 465.962,232.201C465.03,232.201 464.137,231.831 463.478,231.172C462.82,230.514 462.45,229.62 462.45,228.689C462.45,222.698 462.45,210.571 462.45,204.58C462.45,203.648 462.82,202.755 463.478,202.096C464.137,201.437 465.03,201.067 465.962,201.067C468.88,201.067 473.011,201.067 475.929,201.067Z"/>
                        </g>
                    </g>
                </g>
            </g>
        </g>
    </g>
</svg>
