<?xml version="1.0" encoding="UTF-8" standalone="no"?>
<!DOCTYPE svg PUBLIC "-//W3C//DTD SVG 1.1//EN" "http://www.w3.org/Graphics/SVG/1.1/DTD/svg11.dtd">
<svg width="100%" height="100%" viewBox="0 0 573 600" version="1.1" xmlns="http://www.w3.org/2000/svg" xmlns:xlink="http://www.w3.org/1999/xlink" xml:space="preserve" xmlns:serif="http://www.serif.com/" style="fill-rule:evenodd;clip-rule:evenodd;stroke-linecap:round;stroke-linejoin:round;stroke-miterlimit:1.5;">
    <g transform="matrix(1,0,0,1,-453,0)">
        <g id="hot-cool" transform="matrix(0.988042,0,0,1.40061,453.297,0)">
            <rect x="0" y="0" width="579.45" height="428.386" style="fill:none;"/>
            <g transform="matrix(0.698665,0,0,1,33.9475,-0.760951)">
                <g transform="matrix(1.44862,0,0,0.713977,-656.657,0)">
                    <path d="M468.044,429.091L535.127,369.016L771.467,369.016L704.384,429.091L468.044,429.091Z" style="fill:rgb(82,95,16);"/>
                </g>
                <g transform="matrix(1.44862,0,0,0.713977,-607.44,-5.18104)">
                    <rect x="501.152" y="139.933" width="236.34" height="236.34" style="fill:url(#_Linear1);"/>
                </g>
                <g transform="matrix(0.78758,0,0,4.17262,-197.493,-903.689)">
                    <path d="M507.049,253.572C507.854,253.572 508.486,253.595 508.948,253.639C509.409,253.683 509.639,253.737 509.639,253.799C509.639,253.837 509.547,253.878 509.362,253.924C509.178,253.97 508.859,254.04 508.407,254.134C507.602,254.299 507.041,254.421 506.722,254.499C505.984,254.675 504.534,255.036 502.372,255.582C498.281,256.61 495.967,257.18 495.431,257.294C495.029,257.38 494.454,257.445 493.708,257.488C492.962,257.532 492.061,257.554 491.005,257.554C490.066,257.554 489.299,257.522 488.704,257.458C488.109,257.394 487.744,257.308 487.61,257.201C487.057,256.747 486.437,256.283 485.749,255.809C485.213,255.458 484.785,255.144 484.467,254.866L479.211,256.043C476.11,256.745 474.265,257.157 473.679,257.28C473.243,257.369 472.66,257.437 471.931,257.484C471.202,257.531 470.351,257.554 469.378,257.554C468.289,257.554 467.471,257.521 466.927,257.456C466.382,257.39 466.067,257.288 465.984,257.149L465.632,256.571C465.229,255.902 464.969,255.48 464.852,255.304C464.718,255.082 464.567,254.893 464.399,254.737C464.232,254.581 464.022,254.403 463.771,254.202C463.519,254.011 463.393,253.883 463.393,253.818C463.393,253.748 463.687,253.689 464.274,253.643C464.86,253.596 465.556,253.572 466.361,253.572C467.283,253.572 467.995,253.595 468.498,253.641C469.001,253.687 469.253,253.754 469.253,253.841C469.253,253.882 469.228,253.926 469.177,253.972C469.177,253.991 469.165,254.02 469.14,254.06C469.114,254.1 469.102,254.136 469.102,254.169C469.102,254.461 469.236,254.844 469.504,255.32L469.907,256.108C469.957,256.213 470.032,256.367 470.133,256.571C470.233,256.776 470.317,256.931 470.384,257.037C473.1,256.435 476.126,255.757 479.462,255.004C480.083,254.868 480.611,254.746 481.047,254.637C481.315,254.579 481.638,254.507 482.015,254.419C482.392,254.332 482.706,254.262 482.958,254.209C483.561,254.079 484.517,254.014 485.825,254.014C486.428,254.014 486.898,254.028 487.233,254.054C487.568,254.081 487.824,254.121 488,254.174C488.176,254.227 488.323,254.299 488.44,254.391L490.552,255.996C490.871,256.221 491.148,256.432 491.382,256.63L492.011,257.102C493.503,256.772 496.563,255.947 501.19,254.627C501.994,254.4 502.757,254.147 503.478,253.869C503.562,253.83 503.621,253.807 503.654,253.799C503.889,253.717 504.32,253.658 504.949,253.624C505.578,253.59 506.278,253.572 507.049,253.572Z" style="fill:rgb(5,4,37);fill-rule:nonzero;"/>
                    <path d="M534.258,254.873C534.258,254.906 534.179,254.953 534.019,255.016C533.86,255.078 533.764,255.115 533.73,255.126C533.428,255.24 533.252,255.311 533.202,255.339C532.766,255.537 532.267,255.821 531.706,256.192C531.144,256.564 530.863,256.805 530.863,256.918C530.863,256.968 530.914,257.032 531.014,257.11C531.115,257.184 531.165,257.241 531.165,257.28C531.165,257.347 530.943,257.402 530.499,257.444C530.054,257.486 529.463,257.507 528.726,257.507C527.753,257.507 527.045,257.476 526.601,257.412C526.157,257.349 525.934,257.265 525.934,257.161C525.934,257.071 526.001,256.968 526.136,256.852C524.895,257.061 523.436,257.226 521.76,257.348C520.084,257.47 518.399,257.531 516.705,257.531C514.878,257.531 513.315,257.488 512.015,257.404C510.716,257.32 509.723,257.196 509.036,257.031C508.348,256.867 508.004,256.667 508.004,256.431C508.004,256.116 508.658,255.821 509.966,255.544C511.274,255.268 513.038,255.048 515.259,254.884C517.481,254.719 519.899,254.637 522.514,254.637C523.856,254.637 525.033,254.661 526.048,254.708C527.062,254.756 527.946,254.828 528.701,254.925C528.835,254.836 529.166,254.769 529.694,254.723C530.222,254.678 530.93,254.655 531.819,254.655C532.489,254.655 533.064,254.677 533.541,254.719C534.019,254.761 534.258,254.812 534.258,254.873ZM517.108,257.135C518.231,257.135 519.463,257.083 520.804,256.98C522.146,256.876 523.407,256.738 524.589,256.567C525.771,256.395 526.706,256.214 527.393,256.022L527.569,255.907C527.955,255.642 528.231,255.415 528.399,255.226C528.248,255.231 528.089,255.233 527.921,255.233C527.485,255.233 527.074,255.217 526.689,255.184C526.035,255.126 525.402,255.082 524.79,255.052C524.178,255.022 523.462,255.006 522.64,255.006C520.93,255.006 519.291,255.075 517.724,255.212C516.156,255.35 514.895,255.53 513.939,255.755C512.984,255.98 512.506,256.214 512.506,256.459C512.506,256.692 512.887,256.862 513.65,256.971C514.413,257.081 515.565,257.135 517.108,257.135Z" style="fill:rgb(5,4,37);fill-rule:nonzero;"/>
                    <path d="M549.196,257.531C547.251,257.531 545.419,257.497 543.701,257.431C541.983,257.365 540.608,257.28 539.577,257.175C538.546,257.071 538.03,256.965 538.03,256.859C538.03,256.794 538.231,256.741 538.634,256.7C539.036,256.66 539.556,256.639 540.193,256.639C540.813,256.639 541.392,256.66 541.928,256.702C542.464,256.745 543.001,256.8 543.537,256.869C544.124,256.945 544.715,257.002 545.31,257.041C545.905,257.079 546.534,257.104 547.196,257.115C547.859,257.127 548.701,257.133 549.724,257.133C550.813,257.133 551.828,257.115 552.766,257.079C553.705,257.043 554.456,256.992 555.017,256.926C555.579,256.86 555.86,256.783 555.86,256.695C555.86,256.617 555.596,256.55 555.067,256.494C554.539,256.438 553.831,256.389 552.942,256.347C552.054,256.305 550.897,256.26 549.472,256.211C547.008,256.127 545.034,256.028 543.55,255.914C542.066,255.8 541.324,255.649 541.324,255.46C541.324,255.304 541.781,255.164 542.695,255.039C543.609,254.914 544.866,254.816 546.467,254.744C548.068,254.673 549.858,254.637 551.836,254.637C553.462,254.637 555.013,254.66 556.488,254.706C557.964,254.752 559.145,254.812 560.034,254.887C560.923,254.962 561.367,255.041 561.367,255.123C561.367,255.189 561.14,255.243 560.688,255.285C560.235,255.327 559.657,255.348 558.953,255.348C558.148,255.348 557.251,255.304 556.262,255.215C555.575,255.154 554.858,255.106 554.112,255.071C553.366,255.036 552.431,255.018 551.308,255.018C550.235,255.018 549.279,255.034 548.441,255.066C547.603,255.098 546.949,255.142 546.48,255.197C546.01,255.252 545.776,255.315 545.776,255.385C545.776,255.476 546.299,255.554 547.347,255.62C548.395,255.687 549.841,255.754 551.685,255.823C553.613,255.895 555.185,255.963 556.4,256.029C557.616,256.094 558.622,256.177 559.418,256.278C560.214,256.378 560.612,256.502 560.612,256.649C560.612,256.808 560.114,256.955 559.116,257.09C558.119,257.225 556.748,257.332 555.005,257.411C553.261,257.491 551.325,257.531 549.196,257.531Z" style="fill:rgb(5,4,37);fill-rule:nonzero;"/>
                    <path d="M599.641,254.637C601.451,254.637 602.99,254.684 604.255,254.777C605.521,254.871 606.477,254.997 607.122,255.156C607.768,255.315 608.09,255.491 608.09,255.685C608.09,255.991 607.545,256.284 606.456,256.567C605.366,256.849 603.744,257.079 601.59,257.258C599.435,257.437 596.841,257.526 593.807,257.526C592.499,257.526 591.304,257.5 590.223,257.448C589.142,257.395 588.241,257.321 587.52,257.224L587.495,257.283C587.478,257.348 587.214,257.402 586.703,257.444C586.191,257.486 585.441,257.507 584.452,257.507C583.848,257.507 583.291,257.488 582.78,257.45C582.268,257.412 582.013,257.36 582.013,257.294C582.013,257.262 582.163,257.186 582.465,257.067C582.717,256.961 582.893,256.882 582.993,256.829C583.345,256.654 583.836,256.338 584.464,255.88C585.093,255.422 585.651,254.975 586.137,254.537C586.623,254.1 586.866,253.803 586.866,253.647C586.866,253.582 587.126,253.528 587.646,253.486C588.165,253.444 588.92,253.423 589.909,253.423C590.563,253.423 591.133,253.443 591.619,253.482C592.105,253.522 592.348,253.573 592.348,253.636C592.348,253.668 592.214,253.738 591.946,253.844C591.661,253.953 591.468,254.038 591.367,254.099C590.881,254.361 590.252,254.792 589.481,255.392C590.839,255.148 592.394,254.96 594.146,254.831C595.898,254.702 597.73,254.637 599.641,254.637ZM593.605,257.182C595.416,257.182 597.093,257.112 598.635,256.973C600.177,256.833 601.401,256.644 602.306,256.407C603.212,256.169 603.664,255.91 603.664,255.631C603.664,255.447 603.266,255.301 602.47,255.194C601.674,255.086 600.588,255.032 599.213,255.032C597.788,255.032 596.342,255.095 594.875,255.222C593.408,255.348 592.105,255.506 590.965,255.695C589.825,255.885 588.978,256.07 588.425,256.251C588.14,256.5 587.922,256.706 587.771,256.869C587.822,256.867 587.897,256.866 587.998,256.866C588.434,256.866 588.802,256.885 589.104,256.922C589.758,257.008 590.466,257.073 591.229,257.117C591.992,257.16 592.784,257.182 593.605,257.182Z" style="fill:rgb(5,4,37);fill-rule:nonzero;"/>
                    <path d="M630.496,254.637C631.318,254.637 631.984,254.659 632.496,254.703C633.007,254.748 633.263,254.807 633.263,254.88C633.263,254.95 633.04,255.009 632.596,255.056C632.152,255.102 631.569,255.126 630.848,255.126C629.993,255.126 629.314,255.128 628.811,255.132C628.309,255.135 627.789,255.146 627.252,255.162C626.716,255.178 626.163,255.205 625.593,255.243C624.268,255.328 622.998,255.464 621.783,255.649C620.567,255.833 619.616,256.034 618.929,256.251C618.191,256.798 617.822,257.141 617.822,257.28C617.822,257.347 617.546,257.402 616.992,257.444C616.439,257.486 615.727,257.507 614.855,257.507C614.1,257.507 613.48,257.487 612.994,257.446C612.508,257.406 612.265,257.355 612.265,257.294C612.265,257.269 612.315,257.234 612.416,257.189C612.516,257.144 612.633,257.095 612.768,257.044C612.935,256.983 613.111,256.911 613.296,256.829C613.732,256.632 614.235,256.352 614.805,255.987C615.375,255.622 615.66,255.382 615.66,255.268C615.66,255.214 615.609,255.143 615.509,255.056C615.442,254.984 615.408,254.932 615.408,254.901C615.408,254.825 615.618,254.765 616.037,254.723C616.456,254.681 617.051,254.66 617.822,254.66C618.862,254.66 619.574,254.694 619.96,254.761C620.345,254.828 620.538,254.925 620.538,255.053C620.538,255.117 620.446,255.228 620.261,255.385L620.186,255.442C621.594,255.178 623.183,254.978 624.951,254.841C626.72,254.705 628.568,254.637 630.496,254.637Z" style="fill:rgb(5,4,37);fill-rule:nonzero;"/>
                    <path d="M660.572,254.873C660.572,254.906 660.493,254.953 660.333,255.016C660.174,255.078 660.078,255.115 660.044,255.126C659.743,255.24 659.566,255.311 659.516,255.339C659.08,255.537 658.582,255.821 658.02,256.192C657.458,256.564 657.177,256.805 657.177,256.918C657.177,256.968 657.228,257.032 657.328,257.11C657.429,257.184 657.479,257.241 657.479,257.28C657.479,257.347 657.257,257.402 656.813,257.444C656.369,257.486 655.778,257.507 655.04,257.507C654.068,257.507 653.359,257.476 652.915,257.412C652.471,257.349 652.249,257.265 652.249,257.161C652.249,257.071 652.316,256.968 652.45,256.852C651.209,257.061 649.751,257.226 648.074,257.348C646.398,257.47 644.713,257.531 643.02,257.531C641.192,257.531 639.629,257.488 638.33,257.404C637.03,257.32 636.037,257.196 635.35,257.031C634.662,256.867 634.319,256.667 634.319,256.431C634.319,256.116 634.973,255.821 636.28,255.544C637.588,255.268 639.352,255.048 641.574,254.884C643.795,254.719 646.213,254.637 648.829,254.637C650.17,254.637 651.348,254.661 652.362,254.708C653.376,254.756 654.26,254.828 655.015,254.925C655.149,254.836 655.48,254.769 656.008,254.723C656.536,254.678 657.245,254.655 658.133,254.655C658.804,254.655 659.378,254.677 659.856,254.719C660.333,254.761 660.572,254.812 660.572,254.873ZM643.422,257.135C644.545,257.135 645.777,257.083 647.119,256.98C648.46,256.876 649.721,256.738 650.903,256.567C652.085,256.395 653.02,256.214 653.707,256.022L653.883,255.907C654.269,255.642 654.545,255.415 654.713,255.226C654.562,255.231 654.403,255.233 654.235,255.233C653.799,255.233 653.389,255.217 653.003,255.184C652.349,255.126 651.716,255.082 651.104,255.052C650.493,255.022 649.776,255.006 648.954,255.006C647.244,255.006 645.606,255.075 644.038,255.212C642.471,255.35 641.209,255.53 640.253,255.755C639.298,255.98 638.82,256.214 638.82,256.459C638.82,256.692 639.201,256.862 639.964,256.971C640.727,257.081 641.88,257.135 643.422,257.135Z" style="fill:rgb(5,4,37);fill-rule:nonzero;"/>
                    <path d="M692.132,254.84C692.132,254.875 691.981,254.951 691.679,255.07C691.445,255.157 691.26,255.234 691.126,255.301C690.674,255.532 690.166,255.827 689.605,256.187C689.043,256.546 688.762,256.781 688.762,256.892C688.762,256.951 688.838,257.037 688.989,257.149C689.072,257.209 689.114,257.253 689.114,257.283C689.114,257.35 688.875,257.404 688.398,257.445C687.92,257.487 687.195,257.507 686.222,257.507C685.686,257.507 685.221,257.488 684.827,257.451C684.433,257.414 684.177,257.361 684.06,257.294C684.01,257.263 683.984,257.165 683.984,257C683.984,256.908 684.018,256.84 684.085,256.796C682.677,257.025 681.076,257.207 679.282,257.342C677.488,257.477 675.661,257.545 673.8,257.545C672.107,257.545 670.698,257.508 669.575,257.436C668.452,257.363 667.626,257.267 667.098,257.148C666.57,257.029 666.306,256.899 666.306,256.759C666.306,256.696 666.402,256.58 666.595,256.409C666.788,256.238 666.993,256.06 667.211,255.874C667.882,255.344 668.234,255.006 668.267,254.861C668.284,254.797 668.569,254.744 669.122,254.701C669.676,254.658 670.447,254.637 671.436,254.637C672.023,254.637 672.559,254.656 673.045,254.694C673.532,254.732 673.775,254.784 673.775,254.85C673.775,254.887 673.632,254.955 673.347,255.053C673.297,255.075 673.205,255.112 673.071,255.163C672.936,255.215 672.836,255.262 672.769,255.306C672.333,255.548 671.868,255.828 671.373,256.148C670.879,256.468 670.631,256.67 670.631,256.756C670.631,256.878 670.891,256.974 671.411,257.044C671.93,257.114 672.819,257.149 674.076,257.149C675.501,257.149 676.973,257.09 678.49,256.97C680.007,256.851 681.411,256.688 682.702,256.481C683.993,256.275 685.024,256.046 685.795,255.795C686.499,255.319 686.851,255.008 686.851,254.861C686.868,254.796 687.115,254.742 687.593,254.7C688.071,254.658 688.796,254.637 689.768,254.637C690.372,254.637 690.917,254.654 691.403,254.689C691.889,254.725 692.132,254.775 692.132,254.84Z" style="fill:rgb(5,4,37);fill-rule:nonzero;"/>
                    <path d="M706.24,257.531C704.261,257.531 702.543,257.489 701.084,257.407C699.626,257.324 698.494,257.202 697.69,257.042C696.885,256.881 696.483,256.687 696.483,256.459C696.483,256.144 697.036,255.847 698.142,255.568C699.249,255.289 700.837,255.064 702.908,254.893C704.978,254.722 707.388,254.637 710.137,254.637C711.495,254.637 712.816,254.671 714.098,254.74C715.381,254.808 716.42,254.896 717.216,255.002C718.013,255.108 718.411,255.213 718.411,255.318C718.411,255.364 718.298,255.406 718.071,255.444C717.845,255.481 717.556,255.511 717.204,255.532C716.852,255.553 716.491,255.563 716.122,255.563C715.687,255.563 715.314,255.551 715.003,255.527C714.693,255.503 714.438,255.463 714.236,255.406C713.75,255.277 713.134,255.179 712.388,255.113C711.642,255.047 710.699,255.013 709.559,255.013C708.101,255.013 706.717,255.082 705.41,255.22C704.102,255.358 703.054,255.54 702.266,255.766C701.478,255.991 701.084,256.226 701.084,256.471C701.084,256.689 701.541,256.858 702.455,256.979C703.369,257.099 704.63,257.159 706.24,257.159C707.581,257.159 708.792,257.131 709.873,257.074C710.955,257.018 712.015,256.918 713.055,256.775C713.457,256.72 713.884,256.681 714.337,256.658C714.79,256.635 715.301,256.623 715.871,256.623C716.391,256.623 716.831,256.643 717.191,256.684C717.552,256.724 717.732,256.773 717.732,256.831C717.732,256.94 717.166,257.049 716.034,257.159C714.903,257.268 713.444,257.357 711.659,257.427C709.873,257.496 708.067,257.531 706.24,257.531Z" style="fill:rgb(5,4,37);fill-rule:nonzero;"/>
                    <path d="M740.666,254.627C742.276,254.627 743.696,254.663 744.929,254.734C746.161,254.805 747.116,254.905 747.795,255.036C748.474,255.166 748.814,255.318 748.814,255.493C748.814,255.535 748.755,255.599 748.638,255.685C748.52,255.771 748.378,255.865 748.21,255.968L747.506,256.45C746.936,256.874 746.651,257.147 746.651,257.269C746.651,257.34 746.358,257.398 745.771,257.442C745.184,257.485 744.43,257.507 743.508,257.507C742.82,257.507 742.234,257.486 741.747,257.444C741.261,257.402 741.018,257.351 741.018,257.292C741.018,257.269 741.094,257.226 741.244,257.164C741.395,257.103 741.555,257.042 741.722,256.981L742.15,256.819C742.586,256.629 743.063,256.386 743.583,256.091C744.103,255.795 744.363,255.594 744.363,255.488C744.363,255.334 744.023,255.218 743.344,255.141C742.665,255.064 741.697,255.025 740.44,255.025C738.964,255.025 737.514,255.075 736.089,255.174C734.664,255.273 733.378,255.411 732.229,255.589C731.081,255.767 730.163,255.969 729.476,256.195C729.023,256.568 728.73,256.881 728.595,257.135C728.562,257.204 728.52,257.26 728.47,257.304C728.403,257.366 728.105,257.416 727.577,257.452C727.049,257.489 726.382,257.507 725.578,257.507C724.874,257.507 724.27,257.486 723.767,257.444C723.264,257.402 723.013,257.353 723.013,257.297C723.013,257.262 723.189,257.164 723.541,257.002C723.893,256.84 724.094,256.748 724.144,256.728C724.295,256.664 724.371,256.631 724.371,256.628C724.689,256.431 725.125,256.127 725.678,255.715C726.533,255.08 727.091,254.625 727.351,254.35C727.611,254.075 727.766,253.866 727.816,253.724C727.849,253.668 727.875,253.634 727.891,253.621C727.975,253.561 728.273,253.512 728.784,253.476C729.295,253.441 729.962,253.423 730.783,253.423C731.521,253.423 732.137,253.443 732.632,253.485C733.126,253.526 733.373,253.578 733.373,253.64C733.373,253.662 733.319,253.696 733.21,253.741C733.101,253.786 733.03,253.814 732.996,253.825C732.678,253.945 732.468,254.036 732.368,254.099C731.814,254.422 731.186,254.854 730.481,255.397C731.99,255.148 733.575,254.957 735.234,254.825C736.894,254.693 738.705,254.627 740.666,254.627Z" style="fill:rgb(5,4,37);fill-rule:nonzero;"/>
                    <path d="M773.936,256.632C774.606,256.632 775.168,256.653 775.621,256.694C776.073,256.736 776.3,256.786 776.3,256.845C776.3,256.948 775.679,257.053 774.439,257.16C773.198,257.267 771.643,257.355 769.774,257.425C767.905,257.496 766.115,257.531 764.405,257.531C762.326,257.531 760.507,257.488 758.948,257.404C757.389,257.32 756.182,257.199 755.327,257.041C754.472,256.882 754.044,256.695 754.044,256.48C754.044,256.185 754.698,255.895 756.006,255.61C757.314,255.325 759.107,255.091 761.387,254.909C763.667,254.728 766.199,254.637 768.982,254.637C770.692,254.637 772.159,254.668 773.383,254.729C774.606,254.791 775.541,254.878 776.186,254.991C776.832,255.104 777.155,255.237 777.155,255.39C777.155,255.601 776.266,255.783 774.489,255.937C772.712,256.092 770.419,256.21 767.611,256.293C764.803,256.376 761.874,256.421 758.822,256.429L758.822,256.473C758.822,256.692 759.292,256.865 760.231,256.995C761.169,257.124 762.527,257.189 764.304,257.189C765.662,257.189 766.936,257.155 768.127,257.087C769.317,257.019 770.507,256.903 771.698,256.738C771.932,256.703 772.243,256.677 772.628,256.659C773.014,256.641 773.45,256.632 773.936,256.632ZM768.454,255.025C766.978,255.025 765.608,255.076 764.342,255.178C763.076,255.281 762.003,255.414 761.123,255.58C760.243,255.745 759.61,255.921 759.225,256.108C761.236,256.102 763.294,256.066 765.398,256.001C767.502,255.935 769.25,255.847 770.642,255.736C772.033,255.626 772.729,255.504 772.729,255.371C772.729,255.306 772.549,255.247 772.188,255.195C771.828,255.142 771.32,255.101 770.667,255.071C770.013,255.04 769.275,255.025 768.454,255.025Z" style="fill:rgb(5,4,37);fill-rule:nonzero;"/>
                    <path d="M500.159,259.049C499.32,259.049 498.696,259.031 498.285,258.994C497.874,258.957 497.669,258.9 497.669,258.822C497.669,258.794 497.694,258.763 497.744,258.728C497.912,258.621 498.277,258.539 498.838,258.484C499.4,258.429 500.15,258.401 501.089,258.401C501.944,258.401 502.627,258.417 503.139,258.449C503.65,258.481 503.864,258.522 503.78,258.572C503.729,258.601 503.662,258.624 503.579,258.639C503.495,258.655 503.444,258.664 503.428,258.668C503.277,258.689 503.176,258.713 503.126,258.738C503.092,258.752 503.059,258.779 503.025,258.82L502.95,258.901C502.866,258.951 502.602,258.988 502.158,259.013C501.714,259.037 501.047,259.049 500.159,259.049ZM495.984,262.298C495.263,262.298 494.651,262.28 494.148,262.244C493.645,262.209 493.394,262.156 493.394,262.088C493.394,262.055 493.478,261.995 493.645,261.906C493.813,261.818 493.914,261.766 493.947,261.751C494.065,261.693 494.215,261.612 494.4,261.508C494.651,261.353 494.92,261.178 495.205,260.981C495.288,260.93 495.372,260.875 495.456,260.817C495.54,260.76 495.632,260.698 495.733,260.633C496.269,260.282 496.537,259.96 496.537,259.669C496.537,259.597 496.797,259.539 497.317,259.495C497.837,259.45 498.516,259.428 499.354,259.428C500.142,259.428 500.791,259.447 501.303,259.484C501.814,259.521 502.07,259.574 502.07,259.641C502.07,259.683 501.994,259.746 501.843,259.831C501.693,259.916 501.517,260.007 501.315,260.104C501.265,260.13 501.114,260.206 500.863,260.332C500.611,260.458 500.41,260.578 500.259,260.693C499.907,260.951 499.589,261.212 499.304,261.477C499.019,261.742 498.876,261.941 498.876,262.074C498.876,262.136 498.612,262.189 498.084,262.233C497.556,262.276 496.856,262.298 495.984,262.298Z" style="fill:rgb(5,4,37);fill-rule:nonzero;"/>
                    <path d="M517.661,262.322C515.683,262.322 513.964,262.28 512.506,262.198C511.047,262.115 509.916,261.993 509.111,261.833C508.306,261.672 507.904,261.478 507.904,261.25C507.904,260.935 508.457,260.638 509.564,260.359C510.67,260.08 512.259,259.855 514.329,259.684C516.399,259.513 518.809,259.428 521.559,259.428C522.917,259.428 524.237,259.462 525.519,259.531C526.802,259.599 527.841,259.687 528.638,259.793C529.434,259.899 529.832,260.004 529.832,260.109C529.832,260.155 529.719,260.198 529.493,260.235C529.266,260.272 528.977,260.302 528.625,260.323C528.273,260.344 527.913,260.354 527.544,260.354C527.108,260.354 526.735,260.342 526.425,260.318C526.115,260.294 525.859,260.254 525.658,260.198C525.172,260.068 524.556,259.97 523.809,259.904C523.063,259.838 522.12,259.804 520.98,259.804C519.522,259.804 518.139,259.874 516.831,260.012C515.523,260.15 514.476,260.331 513.688,260.557C512.9,260.782 512.506,261.017 512.506,261.262C512.506,261.48 512.963,261.65 513.876,261.77C514.79,261.89 516.052,261.95 517.661,261.95C519.002,261.95 520.213,261.922 521.295,261.866C522.376,261.809 523.436,261.71 524.476,261.566C524.878,261.511 525.306,261.472 525.758,261.449C526.211,261.426 526.722,261.414 527.292,261.414C527.812,261.414 528.252,261.434 528.613,261.475C528.973,261.515 529.153,261.565 529.153,261.622C529.153,261.731 528.587,261.841 527.456,261.95C526.324,262.059 524.866,262.148 523.08,262.218C521.295,262.287 519.488,262.322 517.661,262.322Z" style="fill:rgb(5,4,37);fill-rule:nonzero;"/>
                    <path d="M552.087,259.418C553.697,259.418 555.118,259.454 556.35,259.525C557.582,259.596 558.538,259.696 559.217,259.827C559.896,259.957 560.235,260.109 560.235,260.284C560.235,260.326 560.176,260.39 560.059,260.476C559.942,260.562 559.799,260.656 559.632,260.759L558.928,261.241C558.358,261.665 558.073,261.938 558.073,262.06C558.073,262.131 557.779,262.189 557.192,262.233C556.606,262.276 555.851,262.298 554.929,262.298C554.242,262.298 553.655,262.277 553.169,262.235C552.683,262.193 552.44,262.142 552.44,262.083C552.44,262.06 552.515,262.017 552.666,261.956C552.817,261.894 552.976,261.833 553.144,261.772L553.571,261.611C554.007,261.42 554.485,261.177 555.005,260.882C555.524,260.586 555.784,260.385 555.784,260.279C555.784,260.125 555.445,260.009 554.766,259.932C554.087,259.855 553.119,259.816 551.861,259.816C550.386,259.816 548.936,259.866 547.511,259.965C546.086,260.064 544.799,260.202 543.651,260.38C542.502,260.558 541.584,260.76 540.897,260.986C540.444,261.359 540.151,261.672 540.017,261.926C539.983,261.995 539.941,262.051 539.891,262.095C539.824,262.157 539.526,262.207 538.998,262.243C538.47,262.28 537.804,262.298 536.999,262.298C536.295,262.298 535.692,262.277 535.189,262.235C534.686,262.193 534.434,262.144 534.434,262.088C534.434,262.053 534.61,261.955 534.962,261.793C535.314,261.631 535.515,261.54 535.566,261.519C535.717,261.455 535.792,261.422 535.792,261.419C536.111,261.222 536.547,260.918 537.1,260.506C537.955,259.872 538.512,259.417 538.772,259.141C539.032,258.866 539.187,258.657 539.237,258.515C539.271,258.459 539.296,258.425 539.313,258.413C539.397,258.352 539.694,258.303 540.205,258.268C540.717,258.232 541.383,258.214 542.205,258.214C542.942,258.214 543.558,258.234 544.053,258.276C544.548,258.317 544.795,258.369 544.795,258.431C544.795,258.453 544.74,258.487 544.631,258.532C544.522,258.577 544.451,258.605 544.418,258.616C544.099,258.736 543.89,258.827 543.789,258.89C543.236,259.213 542.607,259.645 541.903,260.188C543.412,259.939 544.996,259.748 546.656,259.616C548.315,259.484 550.126,259.418 552.087,259.418Z" style="fill:rgb(5,4,37);fill-rule:nonzero;"/>
                    <path d="M605.274,259.44C606.028,259.44 606.623,259.461 607.059,259.503C607.495,259.545 607.713,259.592 607.713,259.643C607.713,259.699 607.654,259.758 607.537,259.82C607.42,259.881 607.235,259.966 606.984,260.074C606.749,260.167 606.59,260.237 606.506,260.282C606.137,260.472 605.869,260.622 605.701,260.732C605.534,260.842 605.249,261.05 604.846,261.356C604.025,261.99 603.082,262.476 602.017,262.813C600.953,263.15 599.532,263.391 597.755,263.536C595.978,263.681 593.547,263.753 590.462,263.753C588.886,263.753 587.281,263.72 585.646,263.653C584.012,263.586 582.662,263.495 581.598,263.381C580.533,263.268 580.001,263.146 580.001,263.016C580.001,262.956 580.236,262.9 580.705,262.85C581.174,262.8 581.719,262.776 582.34,262.776C582.826,262.776 583.215,262.781 583.509,262.793C583.802,262.805 584.054,262.823 584.263,262.848C584.473,262.873 584.729,262.911 585.03,262.963C585.634,263.066 586.422,263.161 587.394,263.249C588.366,263.337 589.599,263.381 591.091,263.381C592.818,263.381 594.28,263.316 595.479,263.184C596.678,263.052 597.675,262.85 598.471,262.579C599.268,262.308 599.909,261.955 600.395,261.522C599.155,261.762 597.625,261.955 595.806,262.102C593.987,262.248 592.08,262.322 590.085,262.322C588.375,262.322 586.879,262.278 585.596,262.192C584.314,262.105 583.329,261.982 582.641,261.822C581.954,261.662 581.61,261.475 581.61,261.26C581.61,260.937 582.205,260.635 583.396,260.354C584.586,260.074 586.283,259.849 588.488,259.681C590.693,259.512 593.237,259.428 596.12,259.428C597.461,259.428 598.639,259.452 599.653,259.499C600.668,259.547 601.552,259.619 602.306,259.716C602.424,259.625 602.738,259.557 603.249,259.51C603.761,259.463 604.436,259.44 605.274,259.44ZM590.563,261.926C591.82,261.926 593.149,261.871 594.548,261.76C595.948,261.65 597.239,261.506 598.421,261.329C599.603,261.152 600.513,260.967 601.15,260.775C601.183,260.735 601.217,260.704 601.25,260.684C601.518,260.402 601.745,260.18 601.929,260.02C601.762,260.023 601.627,260.024 601.527,260.024C601.091,260.024 600.68,260.008 600.295,259.975C599.641,259.918 599.008,259.874 598.396,259.843C597.784,259.813 597.067,259.797 596.246,259.797C594.318,259.797 592.579,259.872 591.028,260.022C589.477,260.172 588.27,260.362 587.407,260.594C586.543,260.826 586.112,261.057 586.112,261.288C586.112,261.494 586.497,261.651 587.268,261.761C588.04,261.871 589.138,261.926 590.563,261.926Z" style="fill:rgb(5,4,37);fill-rule:nonzero;"/>
                    <path d="M631.351,261.423C632.022,261.423 632.584,261.444 633.036,261.485C633.489,261.527 633.715,261.577 633.715,261.636C633.715,261.739 633.095,261.844 631.854,261.951C630.614,262.058 629.059,262.146 627.189,262.216C625.32,262.287 623.531,262.322 621.821,262.322C619.742,262.322 617.923,262.28 616.364,262.195C614.805,262.111 613.597,261.99 612.742,261.832C611.887,261.673 611.46,261.487 611.46,261.271C611.46,260.977 612.114,260.686 613.421,260.401C614.729,260.116 616.523,259.882 618.803,259.7C621.083,259.519 623.614,259.428 626.397,259.428C628.107,259.428 629.574,259.459 630.798,259.52C632.022,259.582 632.957,259.669 633.602,259.782C634.247,259.895 634.57,260.028 634.57,260.181C634.57,260.392 633.682,260.574 631.905,260.729C630.128,260.883 627.835,261.001 625.027,261.084C622.219,261.167 619.289,261.212 616.238,261.22L616.238,261.264C616.238,261.483 616.707,261.657 617.646,261.786C618.585,261.915 619.943,261.98 621.72,261.98C623.078,261.98 624.352,261.946 625.542,261.878C626.733,261.811 627.923,261.694 629.113,261.529C629.348,261.494 629.658,261.468 630.044,261.45C630.429,261.432 630.865,261.423 631.351,261.423ZM625.869,259.816C624.394,259.816 623.023,259.867 621.758,259.969C620.492,260.072 619.419,260.205 618.539,260.371C617.659,260.536 617.026,260.712 616.64,260.899C618.652,260.893 620.71,260.857 622.814,260.792C624.918,260.726 626.666,260.638 628.057,260.527C629.449,260.417 630.144,260.295 630.144,260.162C630.144,260.097 629.964,260.038 629.604,259.986C629.243,259.934 628.736,259.892 628.082,259.862C627.428,259.831 626.691,259.816 625.869,259.816Z" style="fill:rgb(5,4,37);fill-rule:nonzero;"/>
                    <path d="M657.077,259.428C657.898,259.428 658.565,259.45 659.076,259.495C659.587,259.539 659.843,259.598 659.843,259.671C659.843,259.741 659.621,259.8 659.177,259.847C658.732,259.893 658.15,259.917 657.429,259.917C656.574,259.917 655.895,259.919 655.392,259.923C654.889,259.927 654.369,259.937 653.833,259.953C653.296,259.969 652.743,259.996 652.173,260.034C650.849,260.12 649.579,260.255 648.363,260.44C647.148,260.624 646.197,260.825 645.509,261.042C644.772,261.589 644.403,261.933 644.403,262.071C644.403,262.138 644.126,262.193 643.573,262.235C643.02,262.277 642.307,262.298 641.435,262.298C640.681,262.298 640.061,262.278 639.574,262.237C639.088,262.197 638.845,262.146 638.845,262.085C638.845,262.06 638.896,262.025 638.996,261.98C639.097,261.935 639.214,261.887 639.348,261.835C639.516,261.774 639.692,261.703 639.876,261.62C640.312,261.423 640.815,261.143 641.385,260.778C641.955,260.413 642.24,260.173 642.24,260.059C642.24,260.005 642.19,259.934 642.089,259.847C642.022,259.775 641.989,259.723 641.989,259.692C641.989,259.616 642.198,259.557 642.617,259.514C643.036,259.472 643.632,259.451 644.403,259.451C645.442,259.451 646.155,259.485 646.54,259.552C646.926,259.619 647.119,259.716 647.119,259.844C647.119,259.908 647.026,260.019 646.842,260.176L646.767,260.233C648.175,259.969 649.763,259.769 651.532,259.633C653.301,259.496 655.149,259.428 657.077,259.428Z" style="fill:rgb(5,4,37);fill-rule:nonzero;"/>
                    <path d="M687.153,259.664C687.153,259.697 687.073,259.744 686.914,259.807C686.755,259.869 686.658,259.906 686.625,259.917C686.323,260.031 686.147,260.102 686.097,260.13C685.661,260.328 685.162,260.612 684.6,260.984C684.039,261.355 683.758,261.596 683.758,261.709C683.758,261.759 683.808,261.823 683.909,261.901C684.01,261.975 684.06,262.032 684.06,262.071C684.06,262.138 683.838,262.193 683.393,262.235C682.949,262.277 682.358,262.298 681.621,262.298C680.648,262.298 679.94,262.267 679.496,262.204C679.051,262.14 678.829,262.057 678.829,261.952C678.829,261.862 678.896,261.759 679.03,261.643C677.79,261.852 676.331,262.018 674.655,262.139C672.978,262.261 671.293,262.322 669.6,262.322C667.773,262.322 666.21,262.28 664.91,262.195C663.611,262.111 662.618,261.987 661.93,261.822C661.243,261.658 660.899,261.458 660.899,261.222C660.899,260.907 661.553,260.612 662.861,260.336C664.168,260.059 665.933,259.839 668.154,259.675C670.376,259.51 672.794,259.428 675.409,259.428C676.75,259.428 677.928,259.452 678.942,259.499C679.957,259.547 680.841,259.619 681.595,259.716C681.73,259.627 682.061,259.56 682.589,259.514C683.117,259.469 683.825,259.447 684.714,259.447C685.384,259.447 685.958,259.468 686.436,259.51C686.914,259.552 687.153,259.603 687.153,259.664ZM670.003,261.926C671.126,261.926 672.358,261.874 673.699,261.771C675.04,261.667 676.302,261.529 677.484,261.358C678.666,261.186 679.6,261.005 680.288,260.813L680.464,260.698C680.849,260.433 681.126,260.206 681.294,260.017C681.143,260.022 680.983,260.024 680.816,260.024C680.38,260.024 679.969,260.008 679.584,259.975C678.93,259.918 678.297,259.874 677.685,259.843C677.073,259.813 676.356,259.797 675.535,259.797C673.825,259.797 672.186,259.866 670.619,260.003C669.051,260.141 667.79,260.322 666.834,260.546C665.878,260.771 665.401,261.005 665.401,261.25C665.401,261.483 665.782,261.653 666.545,261.763C667.308,261.872 668.46,261.926 670.003,261.926Z" style="fill:rgb(5,4,37);fill-rule:nonzero;"/>
                    <path d="M716.575,258.214C717.363,258.214 718.008,258.234 718.511,258.275C719.014,258.315 719.266,258.366 719.266,258.427C719.266,258.459 719.132,258.526 718.863,258.625C718.578,258.731 718.377,258.82 718.26,258.89C717.69,259.219 716.986,259.706 716.148,260.352C715.611,260.756 715.213,261.066 714.953,261.283C714.693,261.5 714.563,261.643 714.563,261.713C714.563,261.787 714.63,261.862 714.765,261.94C714.848,261.99 714.89,262.029 714.89,262.057C714.89,262.129 714.643,262.187 714.148,262.232C713.654,262.276 713.013,262.298 712.225,262.298C711.236,262.298 710.573,262.259 710.238,262.181C709.903,262.103 709.735,261.99 709.735,261.842C709.735,261.759 709.802,261.672 709.936,261.58C708.696,261.805 707.195,261.984 705.435,262.119C703.675,262.254 701.864,262.322 700.003,262.322C698.276,262.322 696.772,262.278 695.489,262.192C694.207,262.105 693.222,261.981 692.534,261.82C691.847,261.658 691.503,261.47 691.503,261.255C691.503,260.948 692.115,260.653 693.339,260.372C694.563,260.09 696.277,259.863 698.482,259.689C700.686,259.515 703.188,259.428 705.988,259.428C707.313,259.428 708.474,259.448 709.471,259.488C710.469,259.527 711.353,259.588 712.124,259.671C712.342,259.696 712.51,259.719 712.627,259.739C713.063,259.379 713.344,259.117 713.469,258.954C713.595,258.791 713.683,258.646 713.733,258.518C713.733,258.469 713.75,258.434 713.784,258.413C713.868,258.35 714.157,258.301 714.651,258.266C715.146,258.231 715.787,258.214 716.575,258.214ZM712.325,259.989C712.04,260.005 711.738,260.013 711.42,260.013C710.934,260.013 710.515,259.996 710.163,259.964C709.542,259.909 708.922,259.868 708.302,259.84C707.681,259.812 706.952,259.797 706.114,259.797C704.186,259.797 702.447,259.872 700.896,260.021C699.345,260.17 698.138,260.36 697.275,260.591C696.411,260.821 695.98,261.052 695.98,261.283C695.98,261.489 696.369,261.648 697.149,261.759C697.928,261.871 699.039,261.926 700.481,261.926C701.805,261.926 703.214,261.864 704.706,261.74C706.198,261.616 707.551,261.457 708.767,261.262C709.982,261.067 710.867,260.87 711.42,260.67L711.646,260.506L712.325,259.989Z" style="fill:rgb(5,4,37);fill-rule:nonzero;"/>
                    <path d="M742.175,261.423C742.846,261.423 743.407,261.444 743.86,261.485C744.312,261.527 744.539,261.577 744.539,261.636C744.539,261.739 743.918,261.844 742.678,261.951C741.437,262.058 739.882,262.146 738.013,262.216C736.144,262.287 734.354,262.322 732.644,262.322C730.565,262.322 728.746,262.28 727.187,262.195C725.628,262.111 724.421,261.99 723.566,261.832C722.711,261.673 722.284,261.487 722.284,261.271C722.284,260.977 722.937,260.686 724.245,260.401C725.553,260.116 727.346,259.882 729.626,259.7C731.906,259.519 734.438,259.428 737.221,259.428C738.931,259.428 740.398,259.459 741.622,259.52C742.846,259.582 743.78,259.669 744.426,259.782C745.071,259.895 745.394,260.028 745.394,260.181C745.394,260.392 744.505,260.574 742.728,260.729C740.951,260.883 738.659,261.001 735.85,261.084C733.042,261.167 730.113,261.212 727.061,261.22L727.061,261.264C727.061,261.483 727.531,261.657 728.47,261.786C729.409,261.915 730.766,261.98 732.544,261.98C733.902,261.98 735.176,261.946 736.366,261.878C737.556,261.811 738.747,261.694 739.937,261.529C740.172,261.494 740.482,261.468 740.867,261.45C741.253,261.432 741.689,261.423 742.175,261.423ZM736.693,259.816C735.218,259.816 733.847,259.867 732.581,259.969C731.316,260.072 730.243,260.205 729.362,260.371C728.482,260.536 727.849,260.712 727.464,260.899C729.476,260.893 731.533,260.857 733.637,260.792C735.741,260.726 737.489,260.638 738.881,260.527C740.272,260.417 740.968,260.295 740.968,260.162C740.968,260.097 740.788,260.038 740.427,259.986C740.067,259.934 739.56,259.892 738.906,259.862C738.252,259.831 737.514,259.816 736.693,259.816Z" style="fill:rgb(5,4,37);fill-rule:nonzero;"/>
                    <path d="M541.236,264.221C542.209,264.221 542.913,264.249 543.349,264.304C543.785,264.36 544.003,264.429 544.003,264.511C544.003,264.875 543.416,265.26 542.242,265.668C541.069,266.076 539.422,266.419 537.301,266.696C535.18,266.974 532.77,267.113 530.071,267.113C528.244,267.113 526.915,267.025 526.085,266.848C525.255,266.672 524.799,266.451 524.715,266.184C523.575,266.468 522.25,266.694 520.742,266.861C519.233,267.029 517.657,267.113 516.014,267.113C513.633,267.113 511.894,266.978 510.796,266.708C509.698,266.438 509.149,266.084 509.149,265.646C509.149,265.309 509.409,264.955 509.928,264.584C510.079,264.483 510.41,264.397 510.922,264.327C511.433,264.256 512.242,264.221 513.348,264.221C514.086,264.221 514.656,264.243 515.058,264.286C515.461,264.328 515.662,264.383 515.662,264.451C515.662,264.477 515.553,264.536 515.335,264.628C515.15,264.692 515.008,264.754 514.907,264.813C514.555,264.985 514.258,265.165 514.015,265.354C513.772,265.542 513.65,265.715 513.65,265.871C513.65,266.137 513.922,266.351 514.467,266.51C515.012,266.67 515.771,266.75 516.743,266.75C517.799,266.75 518.889,266.643 520.012,266.43C521.136,266.216 522.074,265.965 522.829,265.676C523.583,265.388 523.96,265.151 523.96,264.965C523.96,264.884 524.195,264.816 524.664,264.761C525.134,264.705 525.855,264.677 526.827,264.677C527.615,264.677 528.193,264.699 528.562,264.743C528.931,264.787 529.116,264.84 529.116,264.902C529.116,264.938 529.065,264.991 528.965,265.062C528.864,265.133 528.797,265.184 528.763,265.213C528.546,265.355 528.37,265.485 528.235,265.604C528.101,265.722 528.034,265.842 528.034,265.962C528.034,266.199 528.252,266.39 528.688,266.534C529.124,266.678 529.778,266.75 530.65,266.75C531.739,266.75 532.909,266.668 534.158,266.505C535.407,266.341 536.459,266.116 537.314,265.83C538.169,265.543 538.596,265.228 538.596,264.883C538.596,264.846 538.583,264.805 538.558,264.761C538.533,264.716 538.521,264.684 538.521,264.663C538.47,264.603 538.445,264.547 538.445,264.497C538.445,264.424 538.701,264.36 539.212,264.304C539.723,264.249 540.398,264.221 541.236,264.221Z" style="fill:rgb(5,4,37);fill-rule:nonzero;"/>
                    <path d="M556.35,263.84C555.512,263.84 554.887,263.822 554.476,263.785C554.066,263.748 553.86,263.691 553.86,263.613C553.86,263.585 553.886,263.554 553.936,263.519C554.103,263.412 554.468,263.33 555.03,263.275C555.591,263.22 556.342,263.192 557.28,263.192C558.135,263.192 558.819,263.208 559.33,263.24C559.841,263.272 560.055,263.313 559.971,263.363C559.921,263.392 559.854,263.415 559.77,263.431C559.686,263.446 559.636,263.456 559.619,263.459C559.468,263.48 559.368,263.504 559.317,263.529C559.284,263.543 559.25,263.57 559.217,263.611L559.141,263.693C559.057,263.742 558.793,263.78 558.349,263.804C557.905,263.828 557.238,263.84 556.35,263.84ZM552.175,267.089C551.455,267.089 550.843,267.071 550.34,267.036C549.837,267 549.585,266.947 549.585,266.879C549.585,266.846 549.669,266.786 549.837,266.698C550.004,266.609 550.105,266.558 550.139,266.542C550.256,266.484 550.407,266.403 550.591,266.299C550.843,266.144 551.111,265.969 551.396,265.772C551.48,265.721 551.564,265.666 551.647,265.609C551.731,265.551 551.823,265.489 551.924,265.424C552.46,265.073 552.729,264.752 552.729,264.46C552.729,264.388 552.989,264.33 553.508,264.286C554.028,264.241 554.707,264.219 555.545,264.219C556.333,264.219 556.983,264.238 557.494,264.275C558.005,264.313 558.261,264.365 558.261,264.432C558.261,264.474 558.186,264.537 558.035,264.622C557.884,264.707 557.708,264.798 557.507,264.895C557.456,264.922 557.306,264.998 557.054,265.123C556.803,265.249 556.601,265.369 556.451,265.485C556.098,265.742 555.78,266.003 555.495,266.268C555.21,266.533 555.067,266.732 555.067,266.865C555.067,266.927 554.803,266.98 554.275,267.024C553.747,267.068 553.047,267.089 552.175,267.089Z" style="fill:rgb(5,4,37);fill-rule:nonzero;"/>
                    <path d="M582.302,264.219C583.123,264.219 583.79,264.241 584.301,264.286C584.812,264.33 585.068,264.389 585.068,264.462C585.068,264.532 584.846,264.591 584.402,264.638C583.957,264.684 583.375,264.708 582.654,264.708C581.799,264.708 581.12,264.71 580.617,264.714C580.114,264.718 579.594,264.728 579.058,264.744C578.521,264.761 577.968,264.787 577.398,264.825C576.074,264.911 574.804,265.046 573.588,265.231C572.373,265.416 571.421,265.616 570.734,265.833C569.996,266.381 569.628,266.724 569.628,266.862C569.628,266.93 569.351,266.984 568.798,267.026C568.245,267.068 567.532,267.089 566.66,267.089C565.906,267.089 565.286,267.069 564.799,267.029C564.313,266.988 564.07,266.937 564.07,266.876C564.07,266.852 564.12,266.816 564.221,266.771C564.322,266.726 564.439,266.678 564.573,266.626C564.741,266.565 564.917,266.494 565.101,266.411C565.537,266.214 566.04,265.934 566.61,265.569C567.18,265.204 567.465,264.964 567.465,264.851C567.465,264.796 567.415,264.725 567.314,264.638C567.247,264.566 567.214,264.514 567.214,264.483C567.214,264.407 567.423,264.348 567.842,264.305C568.261,264.263 568.856,264.242 569.628,264.242C570.667,264.242 571.38,264.276 571.765,264.343C572.151,264.41 572.344,264.507 572.344,264.635C572.344,264.699 572.251,264.81 572.067,264.968L571.991,265.024C573.4,264.76 574.988,264.56 576.757,264.424C578.526,264.287 580.374,264.219 582.302,264.219Z" style="fill:rgb(5,4,37);fill-rule:nonzero;"/>
                    <path d="M609.662,266.64C610.165,266.664 610.546,266.691 610.806,266.723C611.066,266.755 611.196,266.795 611.196,266.844C611.196,266.914 610.965,266.976 610.504,267.031C610.043,267.085 609.394,267.113 608.555,267.113C607.265,267.113 605.827,267.046 604.243,266.913C602.658,266.779 601.263,266.613 600.056,266.412C598.849,266.212 598.136,266.019 597.918,265.835C596.678,265.982 595.642,266.117 594.813,266.24C593.983,266.363 593.4,266.468 593.065,266.554L592.964,266.722C592.931,266.788 592.889,266.842 592.838,266.886C592.771,266.948 592.474,266.998 591.946,267.034C591.418,267.071 590.751,267.089 589.947,267.089C589.242,267.089 588.635,267.068 588.123,267.024C587.612,266.98 587.356,266.93 587.356,266.872C587.356,266.822 587.566,266.715 587.985,266.551C588.32,266.416 588.572,266.302 588.739,266.21C589.024,266.048 589.402,265.786 589.871,265.426L590.047,265.297C590.902,264.663 591.46,264.208 591.719,263.932C591.979,263.657 592.134,263.448 592.185,263.307C592.218,263.25 592.243,263.216 592.26,263.204C592.344,263.143 592.641,263.094 593.153,263.059C593.664,263.023 594.331,263.005 595.152,263.005C595.923,263.005 596.552,263.027 597.038,263.07C597.524,263.114 597.767,263.166 597.767,263.227C597.767,263.264 597.725,263.302 597.642,263.338C597.558,263.375 597.432,263.42 597.264,263.473C597.013,263.562 596.837,263.631 596.736,263.681C596.166,264.01 595.462,264.497 594.624,265.143C594.255,265.425 593.978,265.648 593.794,265.812C597.147,265.297 600.169,264.904 602.86,264.631C605.55,264.358 607.709,264.221 609.335,264.221C610.156,264.221 610.81,264.243 611.296,264.288C611.783,264.332 612.026,264.389 612.026,264.458C612.026,264.512 611.766,264.562 611.246,264.608C610.726,264.654 609.897,264.713 608.757,264.783C608.639,264.791 608.317,264.811 607.788,264.844C607.26,264.876 606.77,264.91 606.317,264.944C605.194,265.028 604.218,265.113 603.388,265.199C602.558,265.285 601.782,265.382 601.062,265.489C601.095,265.67 601.577,265.838 602.508,265.992C603.438,266.147 604.553,266.278 605.852,266.388C607.151,266.497 608.421,266.581 609.662,266.64Z" style="fill:rgb(5,4,37);fill-rule:nonzero;"/>
                    <path d="M619.972,267.089C619.218,267.089 618.577,267.069 618.049,267.027C617.52,266.986 617.256,266.937 617.256,266.881C617.256,266.853 617.298,266.818 617.382,266.776C617.466,266.734 617.567,266.688 617.684,266.638C618.053,266.487 618.363,266.335 618.614,266.182C619.184,265.854 619.696,265.52 620.148,265.178C620.936,264.585 621.452,264.16 621.695,263.902C621.938,263.644 622.085,263.446 622.135,263.309C622.168,263.25 622.194,263.215 622.21,263.204C622.294,263.141 622.596,263.093 623.116,263.057C623.635,263.022 624.323,263.005 625.178,263.005C625.949,263.005 626.586,263.025 627.089,263.067C627.592,263.108 627.843,263.16 627.843,263.222C627.843,263.244 627.726,263.303 627.491,263.398C627.206,263.501 626.988,263.595 626.837,263.681C626.536,263.854 626.188,264.073 625.794,264.338C625.4,264.603 625.035,264.872 624.7,265.143C623.795,265.887 623.283,266.407 623.166,266.703C623.099,266.797 623.049,266.858 623.015,266.886C622.931,266.948 622.621,266.998 622.085,267.034C621.548,267.071 620.844,267.089 619.972,267.089Z" style="fill:rgb(5,4,37);fill-rule:nonzero;"/>
                    <path d="M639.185,263.84C638.346,263.84 637.722,263.822 637.311,263.785C636.9,263.748 636.695,263.691 636.695,263.613C636.695,263.585 636.72,263.554 636.771,263.519C636.938,263.412 637.303,263.33 637.864,263.275C638.426,263.22 639.176,263.192 640.115,263.192C640.97,263.192 641.653,263.208 642.165,263.24C642.676,263.272 642.89,263.313 642.806,263.363C642.756,263.392 642.689,263.415 642.605,263.431C642.521,263.446 642.471,263.456 642.454,263.459C642.303,263.48 642.202,263.504 642.152,263.529C642.119,263.543 642.085,263.57 642.051,263.611L641.976,263.693C641.892,263.742 641.628,263.78 641.184,263.804C640.74,263.828 640.073,263.84 639.185,263.84ZM635.01,267.089C634.289,267.089 633.677,267.071 633.175,267.036C632.672,267 632.42,266.947 632.42,266.879C632.42,266.846 632.504,266.786 632.672,266.698C632.839,266.609 632.94,266.558 632.973,266.542C633.091,266.484 633.242,266.403 633.426,266.299C633.677,266.144 633.946,265.969 634.231,265.772C634.315,265.721 634.398,265.666 634.482,265.609C634.566,265.551 634.658,265.489 634.759,265.424C635.295,265.073 635.564,264.752 635.564,264.46C635.564,264.388 635.823,264.33 636.343,264.286C636.863,264.241 637.542,264.219 638.38,264.219C639.168,264.219 639.818,264.238 640.329,264.275C640.84,264.313 641.096,264.365 641.096,264.432C641.096,264.474 641.02,264.537 640.87,264.622C640.719,264.707 640.543,264.798 640.341,264.895C640.291,264.922 640.14,264.998 639.889,265.123C639.637,265.249 639.436,265.369 639.285,265.485C638.933,265.742 638.615,266.003 638.33,266.268C638.045,266.533 637.902,266.732 637.902,266.865C637.902,266.927 637.638,266.98 637.11,267.024C636.582,267.068 635.882,267.089 635.01,267.089Z" style="fill:rgb(5,4,37);fill-rule:nonzero;"/>
                    <path d="M656.687,267.113C654.709,267.113 652.99,267.071 651.532,266.989C650.073,266.906 648.942,266.784 648.137,266.624C647.332,266.463 646.93,266.269 646.93,266.041C646.93,265.726 647.483,265.429 648.59,265.15C649.696,264.871 651.285,264.646 653.355,264.475C655.426,264.304 657.836,264.219 660.585,264.219C661.943,264.219 663.263,264.253 664.546,264.322C665.828,264.39 666.868,264.478 667.664,264.584C668.46,264.69 668.858,264.795 668.858,264.9C668.858,264.946 668.745,264.989 668.519,265.026C668.293,265.063 668.003,265.093 667.651,265.114C667.299,265.135 666.939,265.145 666.57,265.145C666.134,265.145 665.761,265.133 665.451,265.109C665.141,265.085 664.885,265.045 664.684,264.989C664.198,264.859 663.582,264.761 662.836,264.695C662.09,264.629 661.147,264.596 660.007,264.596C658.548,264.596 657.165,264.665 655.857,264.803C654.55,264.941 653.502,265.122 652.714,265.348C651.926,265.573 651.532,265.808 651.532,266.053C651.532,266.271 651.989,266.441 652.902,266.561C653.816,266.681 655.078,266.741 656.687,266.741C658.028,266.741 659.24,266.713 660.321,266.657C661.402,266.6 662.463,266.501 663.502,266.357C663.904,266.303 664.332,266.264 664.785,266.24C665.237,266.217 665.748,266.205 666.318,266.205C666.838,266.205 667.278,266.225 667.639,266.266C667.999,266.306 668.179,266.356 668.179,266.413C668.179,266.522 667.614,266.632 666.482,266.741C665.35,266.85 663.892,266.939 662.106,267.009C660.321,267.078 658.514,267.113 656.687,267.113Z" style="fill:rgb(5,4,37);fill-rule:nonzero;"/>
                    <path d="M691.114,264.21C692.723,264.21 694.144,264.245 695.376,264.316C696.608,264.387 697.564,264.488 698.243,264.618C698.922,264.748 699.261,264.9 699.261,265.075C699.261,265.117 699.203,265.181 699.085,265.267C698.968,265.353 698.825,265.447 698.658,265.55L697.954,266.032C697.384,266.456 697.099,266.729 697.099,266.851C697.099,266.922 696.805,266.98 696.218,267.024C695.632,267.068 694.877,267.089 693.955,267.089C693.268,267.089 692.681,267.068 692.195,267.026C691.709,266.984 691.466,266.933 691.466,266.874C691.466,266.851 691.541,266.808 691.692,266.747C691.843,266.685 692.002,266.624 692.17,266.563L692.597,266.402C693.033,266.211 693.511,265.968 694.031,265.673C694.55,265.377 694.81,265.177 694.81,265.07C694.81,264.916 694.471,264.8 693.792,264.723C693.113,264.646 692.145,264.607 690.887,264.607C689.412,264.607 687.962,264.657 686.537,264.756C685.112,264.855 683.825,264.993 682.677,265.171C681.528,265.349 680.61,265.551 679.923,265.777C679.47,266.15 679.177,266.463 679.043,266.717C679.009,266.786 678.968,266.842 678.917,266.886C678.85,266.948 678.553,266.998 678.024,267.034C677.496,267.071 676.83,267.089 676.025,267.089C675.321,267.089 674.718,267.068 674.215,267.026C673.712,266.984 673.46,266.935 673.46,266.879C673.46,266.845 673.636,266.746 673.988,266.584C674.34,266.422 674.542,266.331 674.592,266.31C674.743,266.246 674.818,266.213 674.818,266.21C675.137,266.013 675.573,265.709 676.126,265.297C676.981,264.663 677.538,264.208 677.798,263.932C678.058,263.657 678.213,263.448 678.263,263.307C678.297,263.25 678.322,263.216 678.339,263.204C678.423,263.143 678.72,263.094 679.232,263.059C679.743,263.023 680.409,263.005 681.231,263.005C681.968,263.005 682.585,263.025 683.079,263.067C683.574,263.108 683.821,263.16 683.821,263.222C683.821,263.244 683.766,263.278 683.657,263.323C683.548,263.368 683.477,263.396 683.444,263.407C683.125,263.527 682.916,263.618 682.815,263.681C682.262,264.004 681.633,264.436 680.929,264.979C682.438,264.73 684.022,264.539 685.682,264.407C687.342,264.275 689.152,264.21 691.114,264.21Z" style="fill:rgb(5,4,37);fill-rule:nonzero;"/>
                    <path d="M712.262,266.048C711.558,266.048 710.98,266.025 710.527,265.978C710.075,265.931 709.848,265.872 709.848,265.8C709.848,265.621 710.351,265.458 711.357,265.313C712.363,265.167 713.604,265.042 715.079,264.937C716.554,264.833 718.239,264.732 720.133,264.635C722.128,264.536 723.759,264.424 725.025,264.301C726.29,264.178 726.923,264.054 726.923,263.931C726.923,263.828 726.588,263.743 725.917,263.676C725.247,263.609 724.392,263.56 723.352,263.53C722.313,263.5 721.232,263.484 720.108,263.484C718.499,263.484 717.183,263.502 716.16,263.536C715.138,263.57 714.299,263.629 713.645,263.714C713.444,263.739 713.117,263.786 712.665,263.856C712.313,263.912 712.011,263.957 711.759,263.99C711.508,264.022 711.202,264.049 710.842,264.069C710.481,264.089 710.058,264.1 709.572,264.1C708.985,264.1 708.469,264.08 708.025,264.041C707.581,264.002 707.359,263.951 707.359,263.889C707.359,263.746 707.971,263.613 709.194,263.49C710.418,263.368 712.023,263.271 714.01,263.199C715.997,263.127 718.063,263.091 720.209,263.091C722.271,263.091 724.161,263.124 725.88,263.188C727.598,263.253 728.964,263.346 729.979,263.467C730.993,263.588 731.5,263.729 731.5,263.891C731.5,264.099 730.699,264.287 729.098,264.455C727.497,264.624 725.297,264.78 722.497,264.923C720.368,265.034 718.805,265.125 717.807,265.196C716.81,265.267 716.076,265.35 715.607,265.446C715.138,265.542 714.903,265.669 714.903,265.828C714.903,265.903 714.656,265.959 714.161,265.995C713.666,266.03 713.034,266.048 712.262,266.048ZM712.111,267.113C710.888,267.113 709.894,267.091 709.132,267.048C708.369,267.006 707.987,266.944 707.987,266.862C707.987,266.781 708.142,266.708 708.453,266.643C708.763,266.577 709.203,266.526 709.773,266.488C710.343,266.451 710.988,266.432 711.709,266.432C712.547,266.432 713.26,266.448 713.847,266.479C714.433,266.51 714.727,266.551 714.727,266.603C714.727,266.629 714.702,266.651 714.651,266.668C714.601,266.685 714.526,266.705 714.425,266.727C714.291,266.76 714.19,266.789 714.123,266.814C714.056,266.84 714.023,266.878 714.023,266.928C714.023,266.981 713.855,267.025 713.52,267.06C713.184,267.095 712.715,267.113 712.111,267.113Z" style="fill:rgb(5,4,37);fill-rule:nonzero;"/>
                </g>
                <g transform="matrix(1.44862,0,0,0.713977,-704.618,37.711)">
                    <path d="M737.492,272.436L737.492,376.273L501.152,376.273L501.152,139.933L583.348,139.933" style="fill:none;stroke:black;stroke-width:1px;"/>
                </g>
                <g transform="matrix(1.44862,0,0,0.713977,-656.657,0)">
                    <path d="M468.044,192.751L535.127,132.676" style="fill:none;stroke:black;stroke-width:1px;"/>
                </g>
                <g transform="matrix(1.44862,0,0,0.713977,-656.657,0)">
                    <rect x="535.127" y="132.676" width="236.34" height="236.34" style="fill:none;stroke:black;stroke-width:1px;"/>
                </g>
                <g transform="matrix(1.44862,0,0,0.713977,-314.289,0)">
                    <path d="M503.162,161.302L535.127,132.676" style="fill:none;stroke:black;stroke-width:1px;"/>
                </g>
                <g transform="matrix(1.44862,0,0,0.713977,-314.289,168.741)">
                    <path d="M468.044,192.751L535.127,132.676" style="fill:none;stroke:black;stroke-width:1px;"/>
                </g>
                <g transform="matrix(1.44862,0,0,0.713977,-656.657,168.741)">
                    <path d="M468.044,192.751L535.127,132.676" style="fill:none;stroke:black;stroke-width:1px;"/>
                </g>
            </g>
            <g transform="matrix(0.631535,0,0,0.903918,13.1845,-28.0863)">
                <g transform="matrix(1.44862,0,0,0.713977,0.0502031,-1.42894)">
                    <path d="M237.609,79.638C249.725,79.638 259.547,89.46 259.547,101.576C259.547,101.577 259.547,101.579 259.547,101.58C259.547,113.696 249.725,123.518 237.609,123.518C217.82,123.518 188.866,123.518 169.077,123.518C156.961,123.518 147.139,113.696 147.139,101.58C147.139,101.579 147.139,101.577 147.139,101.576C147.139,89.46 156.961,79.638 169.077,79.638C188.866,79.638 217.82,79.638 237.609,79.638Z" style="fill:white;"/>
                </g>
                <g transform="matrix(1.44862,0,0,0.713977,98.9895,-11.2226)">
                    <g transform="matrix(24,0,0,24,171.806,121.5)">
                    </g>
                    <text x="96.97px" y="121.5px" style="font-family:'Inter-Regular', 'Inter';font-size:24px;fill:rgb(5,4,37);">Impuls</text>
                </g>
            </g>
            <g transform="matrix(0.631535,0,0,0.903918,275.576,118.423)">
                <g transform="matrix(3.18469,0,0,0.713977,-352.967,-1.42894)">
                    <path d="M249.568,79.638C255.08,79.638 259.547,89.46 259.547,101.576L259.547,101.58C259.547,113.696 255.08,123.518 249.568,123.518L157.118,123.518C151.606,123.518 147.139,113.696 147.139,101.58L147.139,101.576C147.139,89.46 151.606,79.638 157.118,79.638L249.568,79.638Z" style="fill:white;"/>
                </g>
                <g transform="matrix(1.44862,0,0,0.713977,98.9895,-11.2226)">
                    <g transform="matrix(24,0,0,24,239.675,121.5)">
                    </g>
                    <text x="29.101px" y="121.5px" style="font-family:'Inter-Regular', 'Inter';font-size:24px;fill:rgb(5,4,37);">Selbstbestimmung</text>
                </g>
            </g>
            <g transform="matrix(0.631535,0,0,0.903918,16.5412,90.2683)">
                <g transform="matrix(1.9128,0,0,0.713977,-94.6261,229.627)">
                    <path d="M242.933,79.638C247.339,79.638 251.565,81.949 254.681,86.064C257.797,90.178 259.547,95.758 259.547,101.576C259.547,101.577 259.547,101.579 259.547,101.58C259.547,107.399 257.797,112.979 254.681,117.093C251.565,121.207 247.339,123.518 242.933,123.518C221.663,123.518 185.023,123.518 163.753,123.518C159.347,123.518 155.121,121.207 152.005,117.093C148.889,112.979 147.139,107.399 147.139,101.58C147.139,101.579 147.139,101.577 147.139,101.576C147.139,95.758 148.889,90.178 152.005,86.064C155.121,81.949 159.347,79.638 163.753,79.638C185.023,79.638 221.663,79.638 242.933,79.638Z" style="fill:white;"/>
                </g>
                <g transform="matrix(1.44862,0,0,0.713977,76.4877,220.502)">
                    <g transform="matrix(24,0,0,24,204.964,121.5)">
                    </g>
                    <text x="95.874px" y="121.5px" style="font-family:'Inter-Regular', 'Inter';font-size:24px;fill:rgb(5,4,37);">Handlung</text>
                </g>
            </g>
            <g transform="matrix(1.0121,0,0,0.713977,-458.783,0)">
                <g transform="matrix(1,-0,-0,1,453,-0)">
                    <path d="M206.514,123.321L200.297,131.61L194.08,123.321L206.514,123.321Z"/>
                    <path d="M200.297,70.503L200.297,124.979" style="fill:none;stroke:black;stroke-width:1px;"/>
                </g>
            </g>
            <g transform="matrix(2.59557e-17,-0.713977,0.423888,4.37185e-17,292.808,649.127)">
                <g transform="matrix(1.46202e-16,2.38766,-1,6.12323e-17,909.171,-691.477)">
                    <path d="M336.436,249.657L344.725,255.873L336.436,262.09L336.436,249.657Z"/>
                    <path d="M319.132,255.873L338.094,255.873" style="fill:none;stroke:black;stroke-width:1px;"/>
                </g>
            </g>
            <g transform="matrix(1.0121,0,0,0.713977,-458.783,255.262)">
                <g transform="matrix(1,-0,-0,1,453,-357.522)">
                    <path d="M206.514,480.843L200.297,489.132L194.08,480.843L206.514,480.843Z"/>
                    <path d="M200.297,428.025L200.297,482.501" style="fill:none;stroke:black;stroke-width:1px;"/>
                </g>
            </g>
            <g transform="matrix(1,0,0,1,-9.80555,13.8187)">
                <g transform="matrix(1.0121,0,0,0.713977,-510.805,-5.32591)">
                    <path d="M593.103,379.575C593.103,377.276 598.977,375.41 606.213,375.41C613.449,375.41 619.323,377.276 619.323,379.575C619.323,379.71 619.303,379.845 619.263,379.977L616.315,399.575C616.315,401.873 611.788,403.74 606.213,403.74C600.638,403.74 596.111,401.873 596.111,399.575L593.164,379.977C593.124,379.845 593.103,379.71 593.103,379.575Z" style="fill:rgb(173,166,252);"/>
                </g>
                <g transform="matrix(1,0,0,1,-3.16631,-6.46208)">
                    <clipPath id="_clip2">
                        <path d="M99.871,271.122L83.611,266.851L92.642,234.652L120.618,242.299L136.477,258.347L111.95,271.122C111.95,271.607 109.244,272 105.911,272C102.578,272 99.871,271.607 99.871,271.122Z"/>
                    </clipPath>
                    <g clip-path="url(#_clip2)">
                        <g transform="matrix(0.0621947,0,0,0.0431745,-69.9573,211.412)">
                            <path d="M2809.8,1303.03L2812.62,1291.11C2904.33,905.192 3101.77,862.502 3103.76,862.117L3104.67,861.95L3105.53,862.244C3119.92,867.084 3128.8,876.209 3131.93,889.369C3147.78,955.732 3007.12,1106.02 3001.13,1112.39C2982.25,1139.86 2820.49,1450.11 2813.81,1456.43L2809.8,1303.03Z" style="fill:rgb(4,88,89);fill-rule:nonzero;"/>
                        </g>
                        <g transform="matrix(0.059602,0,0,0.0568022,-61.0197,196.165)">
                            <path d="M2820.03,1229.09C2820.01,1229.03 2656.51,938.505 2773.96,802.621C2786.48,788.13 2794.8,768.986 2813.23,760.528C2848.01,744.552 2873.17,797.297 2877.71,822.411C2881.51,843.421 2878.96,864.786 2878.45,885.977C2876.63,960.265 2870.81,1035.04 2856.62,1107.99C2852.38,1129.79 2847.4,1151.48 2840.93,1172.7C2838.65,1180.18 2817.25,1224.14 2820.03,1229.09Z" style="fill:rgb(5,110,106);fill-rule:nonzero;"/>
                        </g>
                        <g transform="matrix(0.0562918,-0.0085265,0.0120868,0.0397104,-68.8773,237.325)">
                            <path d="M2740.11,1422.01C2740.07,1422 2543.62,1353.39 2544.86,1237.21C2544.99,1224.83 2541.21,1212.02 2546.62,1199.97C2556.84,1177.22 2590.34,1191.64 2602.71,1201.73C2613.06,1210.17 2620.51,1221.53 2628.87,1231.93C2658.15,1268.39 2685.71,1306.82 2708.52,1348C2715.33,1360.31 2721.74,1372.88 2727.25,1385.87C2729.19,1390.45 2736.76,1420.84 2740.11,1422.01Z" style="fill:rgb(9,152,117);fill-rule:nonzero;"/>
                        </g>
                        <g transform="matrix(0.0556486,0,0,0.0444704,-49.6692,211.205)">
                            <path d="M2775.75,1327.61C2775.69,1327.58 2478.94,1216.46 2492.96,1060.59C2494.46,1043.97 2489.95,1026.41 2499.58,1010.76C2517.77,981.189 2568.08,1003.79 2586.16,1018.54C2601.3,1030.87 2611.64,1046.85 2623.48,1061.62C2664.99,1113.41 2703.61,1167.67 2734.59,1225.17C2743.84,1242.36 2752.45,1259.86 2759.62,1277.84C2762.15,1284.18 2770.69,1325.71 2775.75,1327.61Z" style="fill:rgb(4,88,89);fill-rule:nonzero;"/>
                        </g>
                        <g transform="matrix(0.0761107,0,0,0.0451636,-105.497,207.881)">
                            <path d="M2773.51,1463.56C2773.51,1463.56 2669.27,1221.93 2662.42,1184.86C2662.42,1184.86 2562.51,824.804 2689.9,857.511C2689.9,857.511 2882.36,1061.16 2773.51,1463.56Z" style="fill:rgb(9,152,117);fill-rule:nonzero;"/>
                        </g>
                        <g transform="matrix(0.0575748,0,0,0.0406155,-55.4824,213.618)">
                            <path d="M2853.66,1415.83C2853.72,1415.79 3176.44,1246.05 3136.32,1063.23C3132.04,1043.74 3134.49,1022.37 3121.05,1005.06C3095.66,972.375 3041.52,1005.6 3023.09,1025.4C3007.65,1041.95 2998.28,1062.2 2987,1081.22C2947.45,1147.89 2911.59,1217.12 2884.98,1289.21C2877.04,1310.75 2869.88,1332.59 2864.45,1354.81C2862.53,1362.64 2859.16,1412.93 2853.66,1415.83Z" style="fill:rgb(9,152,117);fill-rule:nonzero;"/>
                        </g>
                    </g>
                </g>
            </g>
        </g>
    </g>
    <defs>
        <linearGradient id="_Linear1" x1="0" y1="0" x2="1" y2="0" gradientUnits="userSpaceOnUse" gradientTransform="matrix(160.598,170.563,-170.563,160.598,527.755,183.435)"><stop offset="0" style="stop-color:rgb(176,247,204);stop-opacity:1"/><stop offset="1" style="stop-color:rgb(91,198,114);stop-opacity:1"/></linearGradient>
    </defs>
</svg>
