<?xml version="1.0" encoding="UTF-8" standalone="no"?>
<!DOCTYPE svg PUBLIC "-//W3C//DTD SVG 1.1//EN" "http://www.w3.org/Graphics/SVG/1.1/DTD/svg11.dtd">
<svg width="100%" height="100%" viewBox="0 0 573 600" version="1.1" xmlns="http://www.w3.org/2000/svg" xmlns:xlink="http://www.w3.org/1999/xlink" xml:space="preserve" xmlns:serif="http://www.serif.com/" style="fill-rule:evenodd;clip-rule:evenodd;stroke-linecap:round;stroke-linejoin:round;stroke-miterlimit:1.5;">
    <g transform="matrix(1,0,0,1,-453,0)">
        <g id="hot-cool" transform="matrix(0.988042,0,0,1.40061,453.297,0)">
            <rect x="0" y="0" width="579.45" height="428.386" style="fill:none;"/>
            <g transform="matrix(0.698665,0,0,1,33.9475,-0.760951)">
                <g transform="matrix(1.44862,0,0,0.713977,-656.657,0)">
                    <path d="M468.044,429.091L535.127,369.016L771.467,369.016L704.384,429.091L468.044,429.091Z" style="fill:rgb(82,95,16);"/>
                </g>
                <g transform="matrix(1.44862,0,0,0.713977,-607.44,-5.18104)">
                    <rect x="501.152" y="139.933" width="236.34" height="236.34" style="fill:url(#_Linear1);"/>
                </g>
                <g transform="matrix(1.44862,0,0,0.713977,-480.066,-30.9524)">
                    <text x="444.004px" y="282.085px" style="font-family:'AnnaiMN-Regular', 'Annai MN';font-style:italic;font-size:28px;fill:rgb(5,4,37);">W<tspan x="470.117px " y="282.085px ">a</tspan>s br<tspan x="538.791px " y="282.085px ">a</tspan>uche</text>
                    <text x="461.272px" y="310.085px" style="font-family:'AnnaiMN-Regular', 'Annai MN';font-style:italic;font-size:28px;fill:rgb(5,4,37);">ich ger<tspan x="553.242px " y="310.085px ">a</tspan>de</text>
                    <g transform="matrix(28,0,0,28,592.898,338.085)">
                    </g>
                    <text x="469.892px" y="338.085px" style="font-family:'AnnaiMN-Regular', 'Annai MN';font-style:italic;font-size:28px;fill:rgb(5,4,37);">wirklich?</text>
                </g>
                <g transform="matrix(1.44862,0,0,0.713977,-704.618,37.711)">
                    <path d="M737.492,272.436L737.492,376.273L501.152,376.273L501.152,139.933L583.348,139.933" style="fill:none;stroke:black;stroke-width:1px;"/>
                </g>
                <g transform="matrix(1.44862,0,0,0.713977,-656.657,0)">
                    <path d="M468.044,192.751L535.127,132.676" style="fill:none;stroke:black;stroke-width:1px;"/>
                </g>
                <g transform="matrix(1.44862,0,0,0.713977,-656.657,0)">
                    <rect x="535.127" y="132.676" width="236.34" height="236.34" style="fill:none;stroke:black;stroke-width:1px;"/>
                </g>
                <g transform="matrix(1.44862,0,0,0.713977,-314.289,0)">
                    <path d="M503.162,161.302L535.127,132.676" style="fill:none;stroke:black;stroke-width:1px;"/>
                </g>
                <g transform="matrix(1.44862,0,0,0.713977,-314.289,168.741)">
                    <path d="M468.044,192.751L535.127,132.676" style="fill:none;stroke:black;stroke-width:1px;"/>
                </g>
                <g transform="matrix(1.44862,0,0,0.713977,-656.657,168.741)">
                    <path d="M468.044,192.751L535.127,132.676" style="fill:none;stroke:black;stroke-width:1px;"/>
                </g>
            </g>
            <g transform="matrix(0.631535,0,0,0.903918,13.1845,-28.0863)">
                <g transform="matrix(1.44862,0,0,0.713977,0.0502031,-1.42894)">
                    <path d="M237.609,79.638C249.725,79.638 259.547,89.46 259.547,101.576C259.547,101.577 259.547,101.579 259.547,101.58C259.547,113.696 249.725,123.518 237.609,123.518C217.82,123.518 188.866,123.518 169.077,123.518C156.961,123.518 147.139,113.696 147.139,101.58C147.139,101.579 147.139,101.577 147.139,101.576C147.139,89.46 156.961,79.638 169.077,79.638C188.866,79.638 217.82,79.638 237.609,79.638Z" style="fill:white;"/>
                </g>
                <g transform="matrix(1.44862,0,0,0.713977,98.9895,-11.2226)">
                    <g transform="matrix(24,0,0,24,171.806,121.5)">
                    </g>
                    <text x="96.97px" y="121.5px" style="font-family:'Inter-Regular', 'Inter';font-size:24px;fill:rgb(5,4,37);">Impuls</text>
                </g>
            </g>
            <g transform="matrix(0.631535,0,0,0.903918,275.576,118.423)">
                <g transform="matrix(3.18469,0,0,0.713977,-352.967,-1.42894)">
                    <path d="M249.568,79.638C255.08,79.638 259.547,89.46 259.547,101.576L259.547,101.58C259.547,113.696 255.08,123.518 249.568,123.518L157.118,123.518C151.606,123.518 147.139,113.696 147.139,101.58L147.139,101.576C147.139,89.46 151.606,79.638 157.118,79.638L249.568,79.638Z" style="fill:white;"/>
                </g>
                <g transform="matrix(1.44862,0,0,0.713977,98.9895,-11.2226)">
                    <g transform="matrix(24,0,0,24,239.675,121.5)">
                    </g>
                    <text x="29.101px" y="121.5px" style="font-family:'Inter-Regular', 'Inter';font-size:24px;fill:rgb(5,4,37);">Selbstbestimmung</text>
                </g>
            </g>
            <g transform="matrix(0.631535,0,0,0.903918,16.5412,90.2683)">
                <g transform="matrix(1.9128,0,0,0.713977,-94.6261,229.627)">
                    <path d="M242.933,79.638C247.339,79.638 251.565,81.949 254.681,86.064C257.797,90.178 259.547,95.758 259.547,101.576C259.547,101.577 259.547,101.579 259.547,101.58C259.547,107.399 257.797,112.979 254.681,117.093C251.565,121.207 247.339,123.518 242.933,123.518C221.663,123.518 185.023,123.518 163.753,123.518C159.347,123.518 155.121,121.207 152.005,117.093C148.889,112.979 147.139,107.399 147.139,101.58C147.139,101.579 147.139,101.577 147.139,101.576C147.139,95.758 148.889,90.178 152.005,86.064C155.121,81.949 159.347,79.638 163.753,79.638C185.023,79.638 221.663,79.638 242.933,79.638Z" style="fill:white;"/>
                </g>
                <g transform="matrix(1.44862,0,0,0.713977,76.4877,220.502)">
                    <g transform="matrix(24,0,0,24,204.964,121.5)">
                    </g>
                    <text x="95.874px" y="121.5px" style="font-family:'Inter-Regular', 'Inter';font-size:24px;fill:rgb(5,4,37);">Handlung</text>
                </g>
            </g>
            <g transform="matrix(1.0121,0,0,0.713977,-458.783,0)">
                <g transform="matrix(1,-0,-0,1,453,-0)">
                    <path d="M206.514,123.321L200.297,131.61L194.08,123.321L206.514,123.321Z"/>
                    <path d="M200.297,70.503L200.297,124.979" style="fill:none;stroke:black;stroke-width:1px;"/>
                </g>
            </g>
            <g transform="matrix(2.59557e-17,-0.713977,0.423888,4.37185e-17,292.808,649.127)">
                <g transform="matrix(1.46202e-16,2.38766,-1,6.12323e-17,909.171,-691.477)">
                    <path d="M336.436,249.657L344.725,255.873L336.436,262.09L336.436,249.657Z"/>
                    <path d="M319.132,255.873L338.094,255.873" style="fill:none;stroke:black;stroke-width:1px;"/>
                </g>
            </g>
            <g transform="matrix(1.0121,0,0,0.713977,-458.783,255.262)">
                <g transform="matrix(1,-0,-0,1,453,-357.522)">
                    <path d="M206.514,480.843L200.297,489.132L194.08,480.843L206.514,480.843Z"/>
                    <path d="M200.297,428.025L200.297,482.501" style="fill:none;stroke:black;stroke-width:1px;"/>
                </g>
            </g>
            <g transform="matrix(1,0,0,1,-9.80555,13.8187)">
                <g transform="matrix(1.0121,0,0,0.713977,-510.805,-5.32591)">
                    <path d="M593.103,379.575C593.103,377.276 598.977,375.41 606.213,375.41C613.449,375.41 619.323,377.276 619.323,379.575C619.323,379.71 619.303,379.845 619.263,379.977L616.315,399.575C616.315,401.873 611.788,403.74 606.213,403.74C600.638,403.74 596.111,401.873 596.111,399.575L593.164,379.977C593.124,379.845 593.103,379.71 593.103,379.575Z" style="fill:rgb(173,166,252);"/>
                </g>
                <g transform="matrix(1,0,0,1,-3.16631,-6.46208)">
                    <clipPath id="_clip2">
                        <path d="M99.871,271.122L83.611,266.851L92.642,234.652L120.618,242.299L136.477,258.347L111.95,271.122C111.95,271.607 109.244,272 105.911,272C102.578,272 99.871,271.607 99.871,271.122Z"/>
                    </clipPath>
                    <g clip-path="url(#_clip2)">
                        <g transform="matrix(0.0621947,0,0,0.0431745,-69.9573,211.412)">
                            <path d="M2809.8,1303.03L2812.62,1291.11C2904.33,905.192 3101.77,862.502 3103.76,862.117L3104.67,861.95L3105.53,862.244C3119.92,867.084 3128.8,876.209 3131.93,889.369C3147.78,955.732 3007.12,1106.02 3001.13,1112.39C2982.25,1139.86 2820.49,1450.11 2813.81,1456.43L2809.8,1303.03Z" style="fill:rgb(4,88,89);fill-rule:nonzero;"/>
                        </g>
                        <g transform="matrix(0.059602,0,0,0.0568022,-61.0197,196.165)">
                            <path d="M2820.03,1229.09C2820.01,1229.03 2656.51,938.505 2773.96,802.621C2786.48,788.13 2794.8,768.986 2813.23,760.528C2848.01,744.552 2873.17,797.297 2877.71,822.411C2881.51,843.421 2878.96,864.786 2878.45,885.977C2876.63,960.265 2870.81,1035.04 2856.62,1107.99C2852.38,1129.79 2847.4,1151.48 2840.93,1172.7C2838.65,1180.18 2817.25,1224.14 2820.03,1229.09Z" style="fill:rgb(5,110,106);fill-rule:nonzero;"/>
                        </g>
                        <g transform="matrix(0.0562918,-0.0085265,0.0120868,0.0397104,-68.8773,237.325)">
                            <path d="M2740.11,1422.01C2740.07,1422 2543.62,1353.39 2544.86,1237.21C2544.99,1224.83 2541.21,1212.02 2546.62,1199.97C2556.84,1177.22 2590.34,1191.64 2602.71,1201.73C2613.06,1210.17 2620.51,1221.53 2628.87,1231.93C2658.15,1268.39 2685.71,1306.82 2708.52,1348C2715.33,1360.31 2721.74,1372.88 2727.25,1385.87C2729.19,1390.45 2736.76,1420.84 2740.11,1422.01Z" style="fill:rgb(9,152,117);fill-rule:nonzero;"/>
                        </g>
                        <g transform="matrix(0.0556486,0,0,0.0444704,-49.6692,211.205)">
                            <path d="M2775.75,1327.61C2775.69,1327.58 2478.94,1216.46 2492.96,1060.59C2494.46,1043.97 2489.95,1026.41 2499.58,1010.76C2517.77,981.189 2568.08,1003.79 2586.16,1018.54C2601.3,1030.87 2611.64,1046.85 2623.48,1061.62C2664.99,1113.41 2703.61,1167.67 2734.59,1225.17C2743.84,1242.36 2752.45,1259.86 2759.62,1277.84C2762.15,1284.18 2770.69,1325.71 2775.75,1327.61Z" style="fill:rgb(4,88,89);fill-rule:nonzero;"/>
                        </g>
                        <g transform="matrix(0.0761107,0,0,0.0451636,-105.497,207.881)">
                            <path d="M2773.51,1463.56C2773.51,1463.56 2669.27,1221.93 2662.42,1184.86C2662.42,1184.86 2562.51,824.804 2689.9,857.511C2689.9,857.511 2882.36,1061.16 2773.51,1463.56Z" style="fill:rgb(9,152,117);fill-rule:nonzero;"/>
                        </g>
                        <g transform="matrix(0.0575748,0,0,0.0406155,-55.4824,213.618)">
                            <path d="M2853.66,1415.83C2853.72,1415.79 3176.44,1246.05 3136.32,1063.23C3132.04,1043.74 3134.49,1022.37 3121.05,1005.06C3095.66,972.375 3041.52,1005.6 3023.09,1025.4C3007.65,1041.95 2998.28,1062.2 2987,1081.22C2947.45,1147.89 2911.59,1217.12 2884.98,1289.21C2877.04,1310.75 2869.88,1332.59 2864.45,1354.81C2862.53,1362.64 2859.16,1412.93 2853.66,1415.83Z" style="fill:rgb(9,152,117);fill-rule:nonzero;"/>
                        </g>
                    </g>
                </g>
            </g>
        </g>
    </g>
    <defs>
        <linearGradient id="_Linear1" x1="0" y1="0" x2="1" y2="0" gradientUnits="userSpaceOnUse" gradientTransform="matrix(160.598,170.563,-170.563,160.598,527.755,183.435)"><stop offset="0" style="stop-color:rgb(176,247,204);stop-opacity:1"/><stop offset="1" style="stop-color:rgb(91,198,114);stop-opacity:1"/></linearGradient>
    </defs>
</svg>
