<?xml version="1.0" encoding="UTF-8" standalone="no"?>
<!DOCTYPE svg PUBLIC "-//W3C//DTD SVG 1.1//EN" "http://www.w3.org/Graphics/SVG/1.1/DTD/svg11.dtd">
<svg width="100%" height="100%" viewBox="0 0 270 285" version="1.1" xmlns="http://www.w3.org/2000/svg" xmlns:xlink="http://www.w3.org/1999/xlink" xml:space="preserve" xmlns:serif="http://www.serif.com/" style="fill-rule:evenodd;clip-rule:evenodd;stroke-linecap:round;stroke-linejoin:round;stroke-miterlimit:1.5;">
    <g transform="matrix(1,0,0,1,0,-650)">
        <g id="welcome" transform="matrix(0.46465,0,0,0.663734,0,650.385)">
            <rect x="0" y="0" width="579.45" height="428.386" style="fill:none;"/>
            <g transform="matrix(2.15216,0,0,1.50663,-10.2881,-987.888)">
                <path d="M116.075,924.065C36.889,875.599 19.424,829.225 45.031,800.202C70.72,771.087 103.352,797.646 110.19,822.536C124.413,768.172 194.053,763.39 187.556,813.679C179.474,876.236 147.222,912.002 138.568,903.797C129.913,895.592 129.442,858.569 164.96,820.788C200.478,783.008 242.644,740.886 244.65,707.954C245.433,695.105 241.203,681.426 230.556,675.426C213.916,666.048 185.531,672.609 173.842,713.073C165.123,683.013 146.818,672.219 126.639,673.038C97.529,674.221 68.249,710.593 126.477,781.29" style="fill:none;stroke:black;stroke-width:5px;"/>
            </g>
        </g>
    </g>
</svg>
