<svg width="77" height="14" viewBox="0 0 77 14" fill="none" xmlns="http://www.w3.org/2000/svg">
<g clip-path="url(#clip0_951_3439)">
<path fill-rule="evenodd" clip-rule="evenodd" d="M18.9681 11.4276C18.7468 12.03 18.4232 12.5455 17.9975 12.9738C17.5052 13.4689 16.8161 13.7165 15.9299 13.7165C15.2506 13.7165 14.658 13.5621 14.1513 13.253C13.6449 12.9439 13.2535 12.5173 12.9773 11.9737C12.7011 11.4301 12.5629 10.8091 12.5629 10.1107V3.99851H16.0335V9.38987C16.0335 9.86458 16.1541 10.2384 16.396 10.5102C16.6378 10.782 16.9773 10.9177 17.4147 10.9177C17.7025 10.9177 17.9497 10.8562 18.1569 10.7331C18.3641 10.6101 18.5254 10.4342 18.6407 10.2053C18.7556 9.97639 18.8132 9.70459 18.8132 9.38987V3.99851H22.2835V13.5962H19.0289L18.9681 11.4276ZM0.701111 13.5962V0.804932H6.27821C7.25664 0.804932 8.07948 0.93644 8.74709 1.19982C9.4147 1.46284 9.91824 1.83348 10.2581 2.31136C10.5975 2.78923 10.7673 3.3515 10.7673 3.99851C10.7673 4.4676 10.6636 4.89695 10.4564 5.28622C10.2492 5.67513 9.95997 6.00006 9.58868 6.26063C9.21774 6.52084 8.78175 6.69983 8.28104 6.79723V6.93436C8.83337 6.95159 9.3355 7.08768 9.78741 7.34227C10.2393 7.59686 10.5989 7.94885 10.8666 8.39824C11.1343 8.84729 11.268 9.37263 11.268 9.97358C11.268 10.6716 11.0866 11.294 10.7241 11.8408C10.3617 12.3872 9.84363 12.8166 9.17001 13.1285C8.49674 13.4404 7.69405 13.5962 6.76159 13.5962H0.701111ZM4.18874 5.97297H5.62192C5.92708 5.97297 6.19617 5.92587 6.4292 5.83127C6.66223 5.73668 6.84504 5.59954 6.97729 5.41915C7.10989 5.23876 7.17602 5.01722 7.17602 4.75384C7.17602 4.36457 7.03351 4.06428 6.7485 3.85259C6.46385 3.64055 6.10529 3.53471 5.67389 3.53471H4.18874V5.97297ZM4.18874 10.8319H5.82913C6.41046 10.8319 6.84928 10.7205 7.14561 10.4972C7.44228 10.2739 7.59044 9.95074 7.59044 9.52701C7.59044 9.2239 7.52114 8.96753 7.38323 8.75866C7.24497 8.54979 7.04801 8.39085 6.79164 8.28219C6.53563 8.17354 6.23189 8.11904 5.88111 8.11904H4.18874V10.8319ZM27.5152 0.804932V13.5962H24.0449V0.804932H27.5152ZM32.7468 0.804932V13.5962H29.2765V0.804932H32.7468Z" fill="#222222"/>
<path d="M57.3077 9.15635L58.8024 9.27907V4.13773H62.2727V9.58077L60.778 9.45805V13.5961H57.3077V9.15635Z" fill="#222222"/>
<path d="M42.0145 7.91928C42.774 8.09756 43.3582 8.36445 43.7666 8.71996C44.2532 9.14368 44.4961 9.71019 44.4961 10.4198C44.4961 11.1066 44.2903 11.7005 43.8791 12.2012C43.4675 12.7019 42.9049 13.0884 42.1913 13.3602C41.4777 13.632 40.6602 13.7681 39.7394 13.7681C38.8646 13.7681 38.0919 13.645 37.4215 13.3989C36.7511 13.1527 36.2072 12.8021 35.79 12.3471C35.3727 11.8921 35.1093 11.3499 35 10.7204L38.2115 10.2566C38.3264 10.6346 38.5134 10.9251 38.7726 11.128C39.0315 11.3312 39.4056 11.4329 39.895 11.4329C40.2344 11.4329 40.4993 11.3815 40.6892 11.2785C40.8791 11.1755 40.9738 11.0267 40.9738 10.8319C40.9738 10.6487 40.8847 10.5028 40.7065 10.3941C40.5279 10.2855 40.2489 10.1969 39.8688 10.1279L38.1595 9.81883C37.181 9.6416 36.4473 9.31669 35.9583 8.84444C35.5456 8.44603 35.3069 7.94705 35.2422 7.34716L36.7351 7.46954C36.7245 7.36369 36.7192 7.25469 36.7192 7.14251C36.7192 6.47299 36.8989 5.90648 37.2588 5.44267C37.6185 4.97921 38.1305 4.62583 38.7953 4.38249C39.46 4.13951 40.2528 4.01782 41.1736 4.01782C42.0255 4.01782 42.7709 4.12789 43.4098 4.34837C44.0485 4.56849 44.5622 4.88463 44.9509 5.29675C45.3391 5.70887 45.5824 6.20679 45.68 6.79051L42.6241 7.22866C42.5492 6.91359 42.3851 6.68327 42.1319 6.53734C41.8787 6.39141 41.5824 6.31861 41.2429 6.31861C40.9434 6.31861 40.6902 6.37136 40.483 6.4772C40.2758 6.58304 40.1722 6.73637 40.1722 6.93645C40.1722 7.07957 40.2341 7.21423 40.3578 7.34012C40.4816 7.466 40.7249 7.56061 41.0873 7.62355L43.0559 7.96675C43.1238 7.97871 43.1906 7.99102 43.2564 8.00438C43.3016 8.01317 43.3465 8.02266 43.3911 8.03215L42.0145 7.91928Z" fill="#222222"/>
<path d="M45.8257 8.21501L47.3204 8.33737V0.944152H50.7044V6.13084C50.9222 5.60338 51.2228 5.1466 51.6068 4.76014C52.0987 4.26539 52.7879 4.01782 53.6743 4.01782C54.3593 4.01782 54.9534 4.17221 55.4569 4.48131C55.9608 4.7904 56.3505 5.21658 56.627 5.76057C56.9031 6.30421 57.0411 6.92519 57.0411 7.62355V9.15178L55.5463 9.02906V13.5961H52.076V8.72734L53.5707 8.85006V8.34441C53.5707 7.86934 53.4498 7.49591 53.2083 7.22409C52.9664 6.95227 52.627 6.81654 52.1896 6.81654C51.9074 6.81654 51.6613 6.87807 51.4512 7.00114C51.2412 7.12386 51.0785 7.29863 50.9636 7.52474C50.8483 7.75084 50.791 8.02406 50.791 8.34441V8.63909L49.2963 8.51636V13.5961H45.8257V8.21501Z" fill="#222222"/>
<path d="M63.3678 9.65357L64.8628 9.77593V6.64459H63.3261V4.13773H64.8628V3.8631C64.8628 3.07332 65.0036 2.41822 65.2858 1.89709C65.5676 1.37631 65.9679 0.987047 66.4856 0.729646C67.0036 0.472246 67.6136 0.343194 68.3158 0.343194C68.7589 0.343194 69.1892 0.377655 69.6065 0.446225C70.0238 0.515146 70.3303 0.572117 70.5259 0.618181L70.0252 3.09056C69.8986 3.0561 69.7532 3.02761 69.5892 3.00476C69.4251 2.9819 69.2769 2.97029 69.1447 2.97029C68.8222 2.97029 68.6036 3.03886 68.4884 3.17635C68.3734 3.31384 68.3158 3.49706 68.3158 3.72598V4.13773H71.2338V1.85419H74.7044V4.13773H76.3618V6.64459H74.7044V10.6002L73.2094 10.4774V10.5144C73.2094 10.7145 73.2614 10.865 73.365 10.9652C73.4686 11.065 73.6355 11.1153 73.8657 11.1153C73.9693 11.1153 74.1203 11.1023 74.319 11.0767C74.5174 11.051 74.6482 11.0267 74.7119 11.0035L75.1259 13.4675C74.7288 13.5765 74.3547 13.6493 74.0039 13.6865C73.6528 13.7238 73.3218 13.7424 73.011 13.7424C71.929 13.7424 71.1132 13.4963 70.5637 13.004C70.0138 12.5117 69.7391 11.7877 69.7391 10.8319V10.1761L71.2338 10.2985V6.64459H68.3158V10.0762L66.8211 9.95351V13.5961H63.3678V9.65357Z" fill="#222222"/>
<path d="M59.3204 2.69568C59.6542 3.00477 60.057 3.15914 60.529 3.15914C61.0007 3.15914 61.4039 3.00477 61.7377 2.69568C62.0715 2.38659 62.2384 2.01454 62.2384 1.57956C62.2384 1.13895 62.0715 0.76552 61.7377 0.459242C61.4039 0.152963 61.0007 0 60.529 0C60.057 0 59.6542 0.152963 59.3204 0.459242C58.9866 0.76552 58.8197 1.13895 58.8197 1.57956C58.8197 2.01454 58.9866 2.38659 59.3204 2.69568Z" fill="#222222"/>
</g>
<defs>
<clipPath id="clip0_951_3439">
<rect width="75.6" height="14" fill="white" transform="translate(0.700012)"/>
</clipPath>
</defs>
</svg>
