<?xml version="1.0" encoding="UTF-8" standalone="no"?>
<!DOCTYPE svg PUBLIC "-//W3C//DTD SVG 1.1//EN" "http://www.w3.org/Graphics/SVG/1.1/DTD/svg11.dtd">
<svg width="100%" height="100%" viewBox="0 0 81 81" version="1.1" xmlns="http://www.w3.org/2000/svg" xmlns:xlink="http://www.w3.org/1999/xlink" xml:space="preserve" xmlns:serif="http://www.serif.com/" style="fill-rule:evenodd;clip-rule:evenodd;stroke-linejoin:round;stroke-miterlimit:2;">
    <g transform="matrix(1,0,0,1,-269,-182)">
        <g id="aiQuestion" transform="matrix(0.0520833,0,0,0.0390625,269.948,182.425)">
            <rect x="0" y="0" width="1536" height="2048" style="fill:none;"/>
            <g transform="matrix(1,0,0,1,0,36.8997)">
                <g transform="matrix(19.2,0,0,-25.6,-1782.32,1996.97)">
                    <path d="M156.409,26.387C156.409,24.047 154.508,22.147 152.168,22.147L113.49,22.147C111.15,22.147 109.25,24.047 109.25,26.387L109.25,42.683C109.25,45.023 111.15,46.923 113.49,46.923L152.168,46.923C154.508,46.923 156.409,45.023 156.409,42.683L156.409,26.387ZM152.409,26.387L152.409,42.683C152.409,42.816 152.301,42.923 152.168,42.923L113.49,42.923C113.357,42.923 113.25,42.816 113.25,42.683L113.25,26.387C113.25,26.254 113.357,26.147 113.49,26.147L152.168,26.147C152.301,26.147 152.409,26.254 152.409,26.387Z"/>
                </g>
                <g transform="matrix(1.05307,0,0,1.05307,-47.1582,-57.8836)">
                    <g transform="matrix(0.681142,0,0,0.90819,599.711,879.257)">
                        <path d="M332.56,155.12L179.44,155.12C166.108,155.136 155.142,166.098 155.12,179.43L155.12,332.56C155.136,345.894 166.106,356.859 179.44,356.87L332.56,356.87C345.894,356.859 356.864,345.894 356.88,332.56L356.88,179.43C356.858,166.098 345.892,155.136 332.56,155.12ZM343.5,332.56C343.467,338.549 338.549,343.467 332.56,343.5L179.44,343.5C173.451,343.467 168.533,338.549 168.5,332.56L168.5,179.43C168.533,173.441 173.451,168.523 179.44,168.49L332.56,168.49C338.549,168.523 343.467,173.441 343.5,179.43L343.5,332.56Z" style="fill-rule:nonzero;"/>
                    </g>
                    <g transform="matrix(0.681142,0,0,0.90819,599.711,879.257)">
                        <path d="M260.13,277.31C260.374,277.123 260.595,276.908 260.79,276.67C261.782,275.574 262.334,274.148 262.34,272.67C262.334,271.263 261.898,269.891 261.09,268.74C260.197,267.441 258.853,266.518 257.32,266.15L257.05,266.09L250.05,244.65C248.45,239.89 247.03,235.557 245.79,231.65C244.457,227.65 243.19,224.213 241.99,221.34C240.951,218.803 239.589,216.41 237.94,214.22C235.64,211.34 233.2,210.73 231.55,210.73C229.23,210.73 227.1,211.92 225.2,214.26C223.527,216.479 222.13,218.894 221.04,221.45C219.74,224.323 218.407,227.72 217.04,231.64C215.673,235.56 214.27,239.777 212.83,244.29L196.91,293.66C196.806,294.16 196.753,294.669 196.75,295.18C196.707,296.963 197.509,298.666 198.91,299.77C200.058,300.647 201.465,301.119 202.91,301.11C204.69,301.11 207.28,300.45 209.51,297.31C209.729,297.008 209.892,296.67 209.99,296.31L215.43,278.57L246.8,278.57L251.48,297C252.556,299.386 254.974,300.898 257.59,300.82C261.59,300.82 264.26,298.43 264.59,294.6C264.629,294.203 264.592,293.803 264.48,293.42L260.13,277.31ZM233.89,240.31C234.97,243.417 236.073,246.65 237.2,250.01L240.53,260.1C241.1,261.83 241.63,263.51 242.14,265.1L220,265.1L231.1,232.25C231.94,234.71 232.85,237.39 233.89,240.33L233.89,240.31Z" style="fill-rule:nonzero;"/>
                    </g>
                    <g transform="matrix(0.681142,0,0,0.90819,599.711,879.257)">
                        <path d="M298.9,271.5C299.067,266.98 299.23,262.197 299.39,257.15L300.19,230.02C300.237,227.96 300.277,226.17 300.31,224.65L301.93,224.71C304.34,224.8 306.45,224.92 308.24,225.05C311.88,225.23 314.73,223.12 315.24,218.8C315.289,215.47 312.866,212.577 309.58,212.04C308.58,211.9 307.08,211.74 305,211.57C304.21,211.5 301.81,211.3 282.23,211.8C275.32,211.62 268.73,212.1 267.55,216.8C266.55,220.94 267.95,222.99 269.34,223.97C270.826,225.02 272.658,225.463 274.46,225.21C275.595,225.072 276.737,224.998 277.88,224.99L284.61,224.89L287.02,224.89L287.02,226.89C287.02,229.19 286.953,231.857 286.82,234.89L285.82,263.08C285.48,271.51 285.26,277.73 285.13,281.7C285.05,284.02 284.98,286.05 284.9,287.78C278.973,287.68 275.153,287.63 273.44,287.63C272.112,287.632 270.806,287.977 269.65,288.63C268.4,289.32 266.91,290.83 266.91,293.95C266.83,295.7 267.43,298.89 272.27,300.55C272.593,300.658 272.93,300.719 273.27,300.73L308.34,301.33C308.448,301.336 308.557,301.339 308.665,301.339C311.971,301.339 314.726,298.694 314.86,295.39C315.083,293.619 314.561,291.833 313.42,290.46C311.984,288.955 309.979,288.123 307.9,288.17L298.1,288.03C298.22,286.75 298.32,285.28 298.4,283.62C298.57,280.05 298.74,276 298.9,271.5Z" style="fill-rule:nonzero;"/>
                    </g>
                    <g transform="matrix(0.681142,0,0,0.90819,599.711,879.257)">
                        <path d="M430.25,234.08C433.92,234.08 436.94,231.06 436.94,227.39C436.94,223.72 433.92,220.7 430.25,220.7L390.08,220.7L390.08,176.87L430.25,176.87C433.92,176.87 436.94,173.85 436.94,170.18C436.94,166.51 433.92,163.49 430.25,163.49L389.52,163.49C386.98,142.063 369.947,125.03 348.52,122.49L348.52,81.76C348.52,78.09 345.5,75.07 341.83,75.07C338.16,75.07 335.14,78.09 335.14,81.76L335.14,121.91L291.29,121.91L291.29,81.76C291.293,81.674 291.295,81.588 291.295,81.501C291.295,77.831 288.275,74.811 284.605,74.811C280.935,74.811 277.915,77.831 277.915,81.501C277.915,81.588 277.917,81.674 277.92,81.76L277.92,121.91L234.08,121.91L234.08,81.76C234.083,81.674 234.085,81.588 234.085,81.501C234.085,77.831 231.065,74.811 227.395,74.811C223.725,74.811 220.705,77.831 220.705,81.501C220.705,81.588 220.707,81.674 220.71,81.76L220.71,121.91L176.87,121.91L176.87,81.76C176.87,78.09 173.85,75.07 170.18,75.07C166.51,75.07 163.49,78.09 163.49,81.76L163.49,122.47C142.063,125.01 125.03,142.043 122.49,163.47L81.75,163.47C78.08,163.47 75.06,166.49 75.06,170.16C75.06,173.83 78.08,176.85 81.75,176.85L121.92,176.85L121.92,220.7L81.75,220.7C78.08,220.7 75.06,223.72 75.06,227.39C75.06,231.06 78.08,234.08 81.75,234.08L121.92,234.08L121.92,277.91L81.75,277.91C78.08,277.91 75.06,280.93 75.06,284.6C75.06,288.27 78.08,291.29 81.75,291.29L121.92,291.29L121.92,335.13L81.75,335.13C81.664,335.127 81.578,335.125 81.491,335.125C77.821,335.125 74.801,338.145 74.801,341.815C74.801,345.485 77.821,348.505 81.491,348.505C81.578,348.505 81.664,348.503 81.75,348.5L122.48,348.5C125.017,369.929 142.051,386.963 163.48,389.5L163.48,430.22C163.48,433.89 166.5,436.91 170.17,436.91C173.84,436.91 176.86,433.89 176.86,430.22L176.86,390.08L220.7,390.08L220.7,430.24C220.697,430.326 220.695,430.412 220.695,430.499C220.695,434.169 223.715,437.189 227.385,437.189C231.055,437.189 234.075,434.169 234.075,430.499C234.075,430.412 234.073,430.326 234.07,430.24L234.07,390.08L277.91,390.08L277.91,430.24C277.907,430.326 277.905,430.412 277.905,430.499C277.905,434.169 280.925,437.189 284.595,437.189C288.265,437.189 291.285,434.169 291.285,430.499C291.285,430.412 291.283,430.326 291.28,430.24L291.28,390.08L335.12,390.08L335.12,430.24C335.12,433.91 338.14,436.93 341.81,436.93C345.48,436.93 348.5,433.91 348.5,430.24L348.5,389.52C369.929,386.983 386.963,369.949 389.5,348.52L430.23,348.52C430.316,348.523 430.402,348.525 430.489,348.525C434.159,348.525 437.179,345.505 437.179,341.835C437.179,338.165 434.159,335.145 430.489,335.145C430.402,335.145 430.316,335.147 430.23,335.15L390.08,335.15L390.08,291.29L430.25,291.29C433.92,291.29 436.94,288.27 436.94,284.6C436.94,280.93 433.92,277.91 430.25,277.91L390.08,277.91L390.08,234.08L430.25,234.08ZM376.71,343C376.683,361.481 361.481,376.678 343,376.7L169,376.7C150.519,376.678 135.317,361.481 135.29,343L135.29,169C135.317,150.518 150.518,135.317 169,135.29L343,135.29C361.482,135.317 376.683,150.518 376.71,169L376.71,343Z" style="fill-rule:nonzero;"/>
                    </g>
                </g>
                <g transform="matrix(19.2,0,0,-25.6,-1782.32,2042.82)">
                    <path d="M139.227,55.356C139.227,57.114 137.8,58.54 136.043,58.54L112.434,58.54C110.676,58.54 109.25,57.114 109.25,55.356C109.25,53.598 110.676,52.172 112.434,52.172L136.043,52.172C137.8,52.172 139.227,53.598 139.227,55.356Z"/>
                </g>
            </g>
        </g>
    </g>
</svg>
