<?xml version="1.0" encoding="UTF-8" standalone="no"?>
<!DOCTYPE svg PUBLIC "-//W3C//DTD SVG 1.1//EN" "http://www.w3.org/Graphics/SVG/1.1/DTD/svg11.dtd">
<svg width="100%" height="100%" viewBox="0 0 81 81" version="1.1" xmlns="http://www.w3.org/2000/svg" xmlns:xlink="http://www.w3.org/1999/xlink" xml:space="preserve" xmlns:serif="http://www.serif.com/" style="fill-rule:evenodd;clip-rule:evenodd;stroke-linejoin:round;stroke-miterlimit:2;">
    <g transform="matrix(1,0,0,1,-269,-91)">
        <g id="bodymap" transform="matrix(0.0520833,0,0,0.0390625,269.683,91.7056)">
            <rect x="0" y="0" width="1536" height="2048" style="fill:none;"/>
            <g transform="matrix(19.2,0,0,25.6,510.976,36.5156)">
                <g>
                    <g transform="matrix(0.0717441,0,0,0.0717441,-4.97985,20.1966)">
                        <circle cx="256" cy="56" r="56"/>
                    </g>
                    <g transform="matrix(0.0717441,0,0,0.0717441,-4.97985,20.1966)">
                        <path d="M437,128L75,128C60.188,128 48,140.188 48,155C48,169.812 60.188,182 75,182L176.88,182C183.79,182 191.88,185.09 196.46,197C201.81,210.83 199.19,237.54 195.89,258.23L191.57,282.68C191.586,282.809 191.542,282.938 191.45,283.03L156.85,479.84C154.255,494.615 164.237,508.919 179,511.58C180.556,511.855 182.133,511.994 183.713,511.994C196.92,511.994 208.294,502.325 210.42,489.29L234.33,352.49C234.33,352.49 242,320 256,320C270.23,320 277.74,352.49 277.74,352.49L301.65,489.41C303.779,502.544 315.234,512.292 328.539,512.292C343.483,512.292 355.779,499.995 355.779,485.052C355.779,483.292 355.609,481.537 355.27,479.81L320.66,283C320.675,282.873 320.635,282.746 320.55,282.65L316.22,258.2C312.92,237.51 310.3,210.8 315.65,196.97C320.21,185.09 328.56,181.97 334.93,181.97L437,181.97C451.812,181.97 464,169.782 464,154.97C464,140.158 451.812,127.97 437,127.97L437,128Z" style="fill-rule:nonzero;"/>
                    </g>
                </g>
            </g>
        </g>
    </g>
</svg>
