<?xml version="1.0" encoding="UTF-8" standalone="no"?>
<!DOCTYPE svg PUBLIC "-//W3C//DTD SVG 1.1//EN" "http://www.w3.org/Graphics/SVG/1.1/DTD/svg11.dtd">
<svg width="100%" height="100%" viewBox="0 0 81 80" version="1.1" xmlns="http://www.w3.org/2000/svg" xmlns:xlink="http://www.w3.org/1999/xlink" xml:space="preserve" xmlns:serif="http://www.serif.com/" style="fill-rule:evenodd;clip-rule:evenodd;stroke-linejoin:round;stroke-miterlimit:2;">
    <g transform="matrix(1,0,0,1,-447,0)">
        <g id="breathe" transform="matrix(0.0520833,0,0,0.0390625,447.253,0)">
            <rect x="0" y="0" width="1536" height="2048" style="fill:none;"/>
            <g transform="matrix(3.82153,0,0,5.09537,278.844,371.792)">
                <rect x="0" y="0" width="256" height="256" style="fill:none;"/>
            </g>
            <g transform="matrix(3.82153,0,0,5.09537,278.844,371.792)">
                <path d="M250.5,121.3C248.354,117.563 244.779,114.854 240.6,113.8C231.488,111.505 222.032,110.895 212.7,112C215.114,98.355 214.222,84.329 210.1,71.1C207.62,63.343 199.561,58.681 191.6,60.4C182.308,62.458 173.443,66.112 165.4,71.2C158.989,57.694 149.459,45.903 137.6,36.8C131.939,32.513 124.061,32.513 118.4,36.8C106.541,45.903 97.011,57.694 90.6,71.2C82.557,66.112 73.692,62.458 64.4,60.4C56.439,58.681 48.38,63.343 45.9,71.1C41.778,84.329 40.886,98.355 43.3,112C33.968,110.895 24.512,111.505 15.4,113.8C8.359,115.574 3.384,121.957 3.384,129.218C3.384,130.7 3.592,132.175 4,133.6C7.5,146.2 18.3,170.3 51.1,189.2C83.9,208.1 112.5,208 127.9,208L128.1,208C143.5,208 172.3,208 204.9,189.2C237.5,170.4 248.5,146.2 252,133.6C253.172,129.467 252.631,125.031 250.5,121.3ZM128,49.6C137.6,56.8 160,78 160,120C160,162 137.6,183.2 128,190.4C118.4,183.2 96,162 96,120C96,78 118.4,56.8 128,49.6ZM19.3,129.3C25.5,127.7 35.2,126.5 47.7,128.7C50.238,135.969 53.487,142.969 57.4,149.6C65.975,164.416 77.234,177.506 90.6,188.2C79.555,185.376 68.954,181.034 59.1,175.3C31.3,159.2 22.3,139.5 19.3,129.3ZM196.9,175.3C187.046,181.034 176.445,185.376 165.4,188.2C178.766,177.506 190.025,164.416 198.6,149.6C202.513,142.969 205.762,135.969 208.3,128.7C217.666,126.904 227.304,127.074 236.6,129.2C233.7,139.5 224.7,159.2 196.9,175.3Z" style="fill-rule:nonzero;"/>
            </g>
        </g>
    </g>
</svg>
