<?xml version="1.0" encoding="UTF-8" standalone="no"?>
<!DOCTYPE svg PUBLIC "-//W3C//DTD SVG 1.1//EN" "http://www.w3.org/Graphics/SVG/1.1/DTD/svg11.dtd">
<svg width="100%" height="100%" viewBox="0 0 81 81" version="1.1" xmlns="http://www.w3.org/2000/svg" xmlns:xlink="http://www.w3.org/1999/xlink" xml:space="preserve" xmlns:serif="http://www.serif.com/" style="fill-rule:evenodd;clip-rule:evenodd;stroke-linejoin:round;stroke-miterlimit:2;">
    <g transform="matrix(1,0,0,1,-447,-91)">
        <g id="feelingsDetective" transform="matrix(0.0520833,0,0,0.0390625,447.253,91.9782)">
            <rect x="0" y="0" width="1536" height="2048" style="fill:none;"/>
            <g transform="matrix(42.7815,0,0,57.042,257.831,320.651)">
                <g id="icons">
                    <g>
                        <g transform="matrix(0.105357,0,0,0.105357,-1.56069,-1.46303)">
                            <path d="M248,112L220.2,112L173.3,45C170.285,40.735 165.376,38.194 160.154,38.194C154.802,38.194 149.789,40.862 146.8,45.3L128,73.6L109.2,45.3C106.211,40.862 101.198,38.194 95.846,38.194C90.624,38.194 85.715,40.735 82.7,45L35.8,112L8,112C3.611,112 -0,115.611 0,120C0,124.389 3.611,128 8,128L248,128C252.389,128 256,124.389 256,120C256,115.611 252.389,112 248,112Z" style="fill-rule:nonzero;"/>
                        </g>
                        <g transform="matrix(0.58023,0,0,0.58023,-270.794,-65.2299)">
                            <rect x="481.746" y="140.935" width="11.013" height="2.326" style="fill:white;"/>
                            <rect x="481.746" y="140.935" width="11.013" height="2.326"/>
                        </g>
                        <g transform="matrix(0.0438054,0,0,0.0438054,11.79,12.2873)">
                            <path d="M176,32C157.129,32 139.323,40.903 128,56C116.677,40.903 98.871,32 80,32C47.085,32 20,59.085 20,92C20,163.9 119.9,220.6 124.1,223C125.29,223.669 126.635,224.014 128,224C129.366,224.023 130.714,223.678 131.9,223C150.297,212.245 167.552,199.647 183.4,185.4C218.3,154 236,122.6 236,92C236,59.085 208.915,32 176,32Z" style="fill-rule:nonzero;"/>
                        </g>
                        <g transform="matrix(0.0438054,0,0,0.0438054,0.807212,12.2873)">
                            <path d="M176,32C157.129,32 139.323,40.903 128,56C116.677,40.903 98.871,32 80,32C47.085,32 20,59.085 20,92C20,163.9 119.9,220.6 124.1,223C125.29,223.669 126.635,224.014 128,224C129.366,224.023 130.714,223.678 131.9,223C150.297,212.245 167.552,199.647 183.4,185.4C218.3,154 236,122.6 236,92C236,59.085 208.915,32 176,32Z" style="fill-rule:nonzero;"/>
                        </g>
                    </g>
                </g>
            </g>
        </g>
    </g>
</svg>
