<?xml version="1.0" encoding="UTF-8" standalone="no"?>
<!DOCTYPE svg PUBLIC "-//W3C//DTD SVG 1.1//EN" "http://www.w3.org/Graphics/SVG/1.1/DTD/svg11.dtd">
<svg width="100%" height="100%" viewBox="0 0 81 80" version="1.1" xmlns="http://www.w3.org/2000/svg" xmlns:xlink="http://www.w3.org/1999/xlink" xml:space="preserve" xmlns:serif="http://www.serif.com/" style="fill-rule:evenodd;clip-rule:evenodd;stroke-linejoin:round;stroke-miterlimit:2;">
    <g transform="matrix(1,0,0,1,-184,0)">
        <g id="heading" transform="matrix(0.0520833,0,0,0.0390625,184.471,0)">
            <rect x="0" y="0" width="1536" height="2048" style="fill:none;"/>
            <g transform="matrix(1,0,0,1,4.54747e-13,-4.83985)">
                <g transform="matrix(32.0502,0,0,25.6,-3213.87,-518.885)">
                    <path d="M139.227,55.356C139.227,57.114 138.373,58.54 137.32,58.54L111.157,58.54C110.104,58.54 109.25,57.114 109.25,55.356C109.25,53.598 110.104,52.172 111.157,52.172L137.32,52.172C138.373,52.172 139.227,53.598 139.227,55.356Z"/>
                </g>
                <g transform="matrix(19.2,0,0,25.6,-1809.99,-257.662)">
                    <path d="M139.227,55.356C139.227,57.114 137.8,58.54 136.043,58.54L112.434,58.54C110.676,58.54 109.25,57.114 109.25,55.356C109.25,53.598 110.676,52.172 112.434,52.172L136.043,52.172C137.8,52.172 139.227,53.598 139.227,55.356Z"/>
                </g>
            </g>
        </g>
    </g>
</svg>
