<?xml version="1.0" encoding="UTF-8" standalone="no"?>
<!DOCTYPE svg PUBLIC "-//W3C//DTD SVG 1.1//EN" "http://www.w3.org/Graphics/SVG/1.1/DTD/svg11.dtd">
<svg width="100%" height="100%" viewBox="0 0 81 80" version="1.1" xmlns="http://www.w3.org/2000/svg" xmlns:xlink="http://www.w3.org/1999/xlink" xml:space="preserve" xmlns:serif="http://www.serif.com/" style="fill-rule:evenodd;clip-rule:evenodd;stroke-linejoin:round;stroke-miterlimit:2;">
    <g transform="matrix(1,0,0,1,-270,0)">
        <g id="list" transform="matrix(0.0520833,0,0,0.0390625,270.833,0)">
            <rect x="0" y="0" width="1536" height="2048" style="fill:none;"/>
            <g transform="matrix(1,0,0,1,82.2354,0)">
                <g transform="matrix(19.2,0,0,25.6,-1612.93,-649.113)">
                    <path d="M139.227,55.356C139.227,57.114 137.8,58.54 136.043,58.54L112.434,58.54C110.676,58.54 109.25,57.114 109.25,55.356C109.25,53.598 110.676,52.172 112.434,52.172L136.043,52.172C137.8,52.172 139.227,53.598 139.227,55.356Z"/>
                </g>
                <g transform="matrix(19.2,0,0,25.6,-1621.82,-393.113)">
                    <path d="M139.227,55.356C139.227,57.114 137.8,58.54 136.043,58.54L112.434,58.54C110.676,58.54 109.25,57.114 109.25,55.356C109.25,53.598 110.676,52.172 112.434,52.172L136.043,52.172C137.8,52.172 139.227,53.598 139.227,55.356Z"/>
                </g>
                <g transform="matrix(19.2,0,0,25.6,-1621.82,-137.113)">
                    <path d="M139.227,55.356C139.227,57.114 137.8,58.54 136.043,58.54L112.434,58.54C110.676,58.54 109.25,57.114 109.25,55.356C109.25,53.598 110.676,52.172 112.434,52.172L136.043,52.172C137.8,52.172 139.227,53.598 139.227,55.356Z"/>
                </g>
                <g transform="matrix(3.97804,0,0,25.6,-121.46,-649.113)">
                    <path d="M139.227,55.277L139.227,55.435C139.227,57.149 132.511,58.54 124.238,58.54C115.966,58.54 109.25,57.149 109.25,55.435L109.25,55.277C109.25,53.563 115.966,52.172 124.238,52.172C132.511,52.172 139.227,53.563 139.227,55.277Z"/>
                </g>
                <g transform="matrix(3.97804,0,0,25.6,-123.301,-393.113)">
                    <path d="M139.227,55.277L139.227,55.435C139.227,57.149 132.511,58.54 124.238,58.54C115.966,58.54 109.25,57.149 109.25,55.435L109.25,55.277C109.25,53.563 115.966,52.172 124.238,52.172C132.511,52.172 139.227,53.563 139.227,55.277Z"/>
                </g>
                <g transform="matrix(3.97804,0,0,25.6,-123.301,-137.113)">
                    <path d="M139.227,55.277L139.227,55.435C139.227,57.149 132.511,58.54 124.238,58.54C115.966,58.54 109.25,57.149 109.25,55.435L109.25,55.277C109.25,53.563 115.966,52.172 124.238,52.172C132.511,52.172 139.227,53.563 139.227,55.277Z"/>
                </g>
            </g>
        </g>
    </g>
</svg>
