<?xml version="1.0" encoding="UTF-8" standalone="no"?>
<!DOCTYPE svg PUBLIC "-//W3C//DTD SVG 1.1//EN" "http://www.w3.org/Graphics/SVG/1.1/DTD/svg11.dtd">
<svg width="100%" height="100%" viewBox="0 0 81 81" version="1.1" xmlns="http://www.w3.org/2000/svg" xmlns:xlink="http://www.w3.org/1999/xlink" xml:space="preserve" xmlns:serif="http://www.serif.com/" style="fill-rule:evenodd;clip-rule:evenodd;stroke-linejoin:round;stroke-miterlimit:2;">
    <g transform="matrix(1,0,0,1,-533,-91)">
        <g id="needsDetective" transform="matrix(0.0520833,0,0,0.0390625,533.214,91.9782)">
            <rect x="0" y="0" width="1536" height="2048" style="fill:none;"/>
            <g id="icons" transform="matrix(33.0903,0,0,44.1205,373.398,493.555)">
                <g transform="matrix(0.136213,0,0,0.136213,-5.51023,-5.81041)">
                    <path d="M248,112L220.2,112L173.3,45C170.285,40.735 165.376,38.194 160.154,38.194C154.802,38.194 149.789,40.862 146.8,45.3L128,73.6L109.2,45.3C106.211,40.862 101.198,38.194 95.846,38.194C90.624,38.194 85.715,40.735 82.7,45L35.8,112L8,112C3.611,112 -0,115.611 0,120C0,124.389 3.611,128 8,128L248,128C252.389,128 256,124.389 256,120C256,115.611 252.389,112 248,112Z" style="fill-rule:nonzero;"/>
                </g>
                <g transform="matrix(0.770107,0,0,0.750161,-363.312,-88.0351)">
                    <rect x="481.746" y="140.935" width="11.013" height="2.326" style="fill:white;"/>
                    <rect x="481.746" y="140.935" width="11.013" height="2.326"/>
                </g>
            </g>
            <g transform="matrix(11.5282,0,0,15.3709,445.531,1302.89)">
                <g transform="matrix(1,0,0,1,-24.18,-24.18)">
                    <g id="Pfad_15" transform="matrix(2,0,0,2,0,0)">
                        <path d="M11.15,19.91C7.01,19.91 3.65,16.54 3.65,12.41C3.65,7.93 7.3,4.28 11.78,4.28C16.61,4.28 20.54,8.21 20.54,13.04C20.54,13.37 20.27,13.64 19.94,13.64C19.61,13.64 19.34,13.37 19.34,13.04C19.34,8.87 15.95,5.48 11.78,5.48C7.96,5.48 4.85,8.59 4.85,12.41C4.85,15.89 7.68,18.71 11.15,18.71C14.28,18.71 16.82,16.16 16.82,13.04C16.82,10.26 14.56,7.99 11.77,7.99C9.34,7.99 7.35,9.98 7.35,12.41C7.35,14.5 9.05,16.2 11.14,16.2C12.89,16.2 14.31,14.78 14.31,13.03C14.31,11.63 13.17,10.49 11.77,10.49C10.72,10.49 9.86,11.35 9.86,12.4C9.86,13.11 10.43,13.68 11.13,13.68C11.49,13.68 11.79,13.39 11.79,13.02C11.46,13.02 11.18,12.74 11.18,12.41C11.18,12.08 11.43,11.8 11.77,11.8C12.45,11.8 13,12.35 13,13.03C13,14.05 12.17,14.89 11.14,14.89L11.13,14.89C9.77,14.89 8.66,13.79 8.66,12.43C8.66,10.7 10.06,9.3 11.77,9.3C13.83,9.3 15.51,10.98 15.51,13.04C15.51,15.45 13.55,17.41 11.14,17.41C8.39,17.41 6.15,15.17 6.15,12.42C6.15,9.33 8.67,6.81 11.77,6.8C15.22,6.8 18.02,9.6 18.02,13.05C18.02,16.84 14.94,19.92 11.15,19.92L11.15,19.91Z" style="fill-rule:nonzero;"/>
                    </g>
                </g>
            </g>
            <g transform="matrix(-11.5282,0,0,15.3709,1091.99,1302.89)">
                <g transform="matrix(1,0,0,1,-24.18,-24.18)">
                    <g id="Pfad_151" serif:id="Pfad_15" transform="matrix(2,0,0,2,0,0)">
                        <path d="M11.15,19.91C7.01,19.91 3.65,16.54 3.65,12.41C3.65,7.93 7.3,4.28 11.78,4.28C16.61,4.28 20.54,8.21 20.54,13.04C20.54,13.37 20.27,13.64 19.94,13.64C19.61,13.64 19.34,13.37 19.34,13.04C19.34,8.87 15.95,5.48 11.78,5.48C7.96,5.48 4.85,8.59 4.85,12.41C4.85,15.89 7.68,18.71 11.15,18.71C14.28,18.71 16.82,16.16 16.82,13.04C16.82,10.26 14.56,7.99 11.77,7.99C9.34,7.99 7.35,9.98 7.35,12.41C7.35,14.5 9.05,16.2 11.14,16.2C12.89,16.2 14.31,14.78 14.31,13.03C14.31,11.63 13.17,10.49 11.77,10.49C10.72,10.49 9.86,11.35 9.86,12.4C9.86,13.11 10.43,13.68 11.13,13.68C11.49,13.68 11.79,13.39 11.79,13.02C11.46,13.02 11.18,12.74 11.18,12.41C11.18,12.08 11.43,11.8 11.77,11.8C12.45,11.8 13,12.35 13,13.03C13,14.05 12.17,14.89 11.14,14.89L11.13,14.89C9.77,14.89 8.66,13.79 8.66,12.43C8.66,10.7 10.06,9.3 11.77,9.3C13.83,9.3 15.51,10.98 15.51,13.04C15.51,15.45 13.55,17.41 11.14,17.41C8.39,17.41 6.15,15.17 6.15,12.42C6.15,9.33 8.67,6.81 11.77,6.8C15.22,6.8 18.02,9.6 18.02,13.05C18.02,16.84 14.94,19.92 11.15,19.92L11.15,19.91Z" style="fill-rule:nonzero;"/>
                    </g>
                </g>
            </g>
        </g>
    </g>
</svg>
