<?xml version="1.0" encoding="UTF-8" standalone="no"?>
<!DOCTYPE svg PUBLIC "-//W3C//DTD SVG 1.1//EN" "http://www.w3.org/Graphics/SVG/1.1/DTD/svg11.dtd">
<svg width="100%" height="100%" viewBox="0 0 81 80" version="1.1" xmlns="http://www.w3.org/2000/svg" xmlns:xlink="http://www.w3.org/1999/xlink" xml:space="preserve" xmlns:serif="http://www.serif.com/" style="fill-rule:evenodd;clip-rule:evenodd;stroke-linejoin:round;stroke-miterlimit:2;">
    <g transform="matrix(1,0,0,1,-535,0)">
        <g id="rubiks" transform="matrix(0.0520833,0,0,0.0390625,535.571,0)">
            <rect x="0" y="0" width="1536" height="2048" style="fill:none;"/>
            <g transform="matrix(11.7679,0,0,15.6905,311.682,317.928)">
                <path d="M38.777,0L77.553,22.5L77.553,67.5L52.835,81.843L52.835,66.386L38.777,74.543L38.686,74.596L38.777,90L0,67.5L0,22.5L38.777,0ZM38.777,28.43L52.473,20.483L38.777,12.535L25.081,20.483L38.777,28.43Z" style="fill:rgb(229,88,65);"/>
            </g>
            <g transform="matrix(11.7679,0,0,15.6905,311.682,317.928)">
                <path d="M52.835,51.086L52.835,66.386L38.777,74.543L38.507,74.7L38.507,74.387L24.179,66.073L24.179,36.373L10.937,28.689L25.081,20.483L38.777,28.43L24.633,36.637L38.507,44.687L38.777,44.844L52.92,36.637L66.268,28.892L66.268,43.292L52.835,51.086Z" style="fill:rgb(91,118,255);"/>
            </g>
            <g transform="matrix(11.7679,0,0,15.6905,311.682,317.928)">
                <path d="M62.713,13.889L77.553,22.5L77.553,67.5L52.835,81.843L52.835,66.386L66.268,58.592L66.268,28.892L66.617,28.689L52.473,20.483L62.713,13.889ZM49.634,6.3L38.777,0L0,22.5L0,67.5L10.746,73.735L10.746,28.8L10.937,28.689L25.081,20.483L38.777,12.535L49.634,6.3Z" style="fill:rgb(91,118,255);"/>
            </g>
            <g transform="matrix(11.7679,0,0,15.6905,311.682,317.928)">
                <path d="M52.835,66.386L38.777,74.543L38.507,74.7L38.507,59.087L24.179,50.773L10.746,42.979L10.746,28.8L10.937,28.689L24.179,36.373L24.633,36.637L38.507,44.687L38.777,44.844L52.92,36.637L38.777,28.43L52.473,20.483L66.617,28.689L66.268,28.892L66.268,43.292L52.835,51.086L52.835,66.386Z" style="fill:rgb(255,253,253);"/>
            </g>
            <g transform="matrix(11.7679,0,0,15.6905,311.682,317.928)">
                <path d="M52.835,66.386L52.835,51.086L38.777,59.243L38.507,59.087L38.507,45L38.777,44.844L38.507,44.687L24.633,36.637L24.179,36.373L24.179,50.773L38.507,59.087L38.507,74.7L38.777,74.543L52.835,66.386Z" style="fill:rgb(25,157,70);"/>
            </g>
            <g transform="matrix(11.7679,0,0,15.6905,311.682,317.928)">
                <path d="M0,22.5L0,67.5L10.746,73.735L10.746,28.8L10.937,28.689L25.081,20.483L14.362,14.167L0,22.5Z" style="fill:rgb(25,157,70);fill-rule:nonzero;"/>
            </g>
            <g transform="matrix(11.7679,0,0,15.6905,311.682,317.928)">
                <path d="M77.553,22.5L63.192,14.167L52.473,20.483L66.617,28.689L66.268,28.892L66.268,43.292L77.553,36.637L77.553,22.5ZM14.362,14.167L27.919,6.3L38.777,12.535L25.081,20.483L14.362,14.167Z" style="fill:rgb(25,157,70);"/>
            </g>
            <g transform="matrix(11.7679,0,0,15.6905,311.682,317.928)">
                <path d="M0,67.5L0,36.373L10.746,42.979L10.746,73.735L0,67.5Z" style="fill:rgb(255,140,91);"/>
            </g>
            <g transform="matrix(11.7679,0,0,15.6905,311.682,317.928)">
                <path d="M0,22.5L0,36.373L10.746,42.979L10.746,28.8L10.937,28.689L0,22.5Z" style="fill:rgb(255,140,91);fill-rule:nonzero;"/>
            </g>
            <g transform="matrix(11.7679,0,0,15.6905,311.682,317.928)">
                <path d="M63.192,14.167L77.553,22.5L66.617,28.689L52.473,20.483L63.192,14.167ZM27.919,6.3L14.362,14.167L25.081,20.483L38.777,12.535L27.919,6.3Z" style="fill:rgb(255,140,91);"/>
            </g>
            <g transform="matrix(11.7679,0,0,15.6905,311.682,317.928)">
                <path d="M52.835,51.086L52.835,66.386L38.777,74.543L38.507,74.7L38.507,59.087L38.777,59.243L52.835,51.086ZM38.777,44.844L38.507,45L38.507,44.687L38.777,44.844ZM24.633,36.637L24.179,36.373L24.179,36.9L24.633,36.637Z" style="fill:rgb(255,140,91);"/>
            </g>
            <g transform="matrix(11.7679,0,0,15.6905,311.682,317.928)">
                <path d="M0,52.2L0,67.5L10.746,73.735L10.746,58.392L0,52.2Z" style="fill:rgb(237,220,64);fill-rule:nonzero;"/>
            </g>
            <g transform="matrix(11.7679,0,0,15.6905,311.682,317.928)">
                <path d="M10.746,43.179L10.746,58.392L24.179,66.133L24.179,51.028L10.746,43.179Z" style="fill:rgb(237,220,64);fill-rule:nonzero;"/>
            </g>
            <g transform="matrix(11.7679,0,0,15.6905,311.682,317.928)">
                <path d="M38.507,45L38.507,44.687L24.633,36.637L38.777,28.43L52.473,20.483L66.617,28.689L66.268,28.892L52.92,36.637L38.777,44.844L38.507,45ZM24.179,36.9L24.633,36.637L24.179,36.373L24.179,36.9ZM38.507,74.7L38.507,74.389L38.776,74.544L38.507,74.7Z" style="fill:rgb(237,220,64);"/>
            </g>
            <g transform="matrix(11.7679,0,0,15.6905,311.682,317.928)">
                <path d="M10.746,28.8L10.496,28.367L10.246,28.512L10.246,28.8L10.746,28.8ZM39.007,89.1L39.007,44.1L38.007,44.1L38.007,89.1L39.007,89.1ZM24.679,81L24.679,36L23.679,36L23.679,81L24.679,81ZM11.246,73.8L11.246,28.8L10.246,28.8L10.246,73.8L11.246,73.8ZM53.335,81.9L53.335,36.9L52.335,36.9L52.335,81.9L53.335,81.9ZM66.768,73.8L66.768,28.8L65.768,28.8L65.768,73.8L66.768,73.8ZM38.758,45.433L77.534,22.933L77.033,22.068L38.256,44.568L38.758,45.433ZM38.758,59.833L77.534,37.333L77.033,36.468L38.256,58.968L38.758,59.833ZM38.758,75.132L77.534,52.633L77.033,51.768L38.256,74.268L38.758,75.132ZM24.435,37.329L62.969,14.318L62.456,13.46L23.922,36.471L24.435,37.329ZM10.996,29.233L49.884,6.733L49.384,5.867L10.496,28.367L10.996,29.233ZM0.019,22.933L38.795,45.433L39.297,44.568L0.521,22.068L0.019,22.933ZM14.347,14.833L53.124,37.333L53.625,36.468L14.849,13.967L14.347,14.833ZM0.019,37.333L38.795,59.833L39.297,58.968L0.521,36.468L0.019,37.333ZM0.019,52.633L38.795,75.132L39.297,74.268L0.521,51.768L0.019,52.633ZM27.78,6.732L66.556,29.233L67.058,28.368L28.281,5.868L27.78,6.732ZM38.777,0L39.279,-0.865L38.777,-1.156L38.275,-0.865L38.777,0ZM77.553,22.5L78.553,22.5L78.553,21.924L78.055,21.635L77.553,22.5ZM77.553,67.5L78.055,68.365L78.553,68.076L78.553,67.5L77.553,67.5ZM38.777,90L38.275,90.865L38.777,91.156L39.279,90.865L38.777,90ZM0,67.5L-1,67.5L-1,68.076L-0.502,68.365L0,67.5ZM0,22.5L-0.502,21.635L-1,21.924L-1,22.5L0,22.5ZM38.275,0.865L77.051,23.365L78.055,21.635L39.279,-0.865L38.275,0.865ZM76.553,22.5L76.553,67.5L78.553,67.5L78.553,22.5L76.553,22.5ZM77.051,66.635L38.275,89.135L39.279,90.865L78.055,68.365L77.051,66.635ZM39.279,89.135L0.502,66.635L-0.502,68.365L38.275,90.865L39.279,89.135ZM1,67.5L1,22.5L-1,22.5L-1,67.5L1,67.5ZM0.502,23.365L39.279,0.865L38.275,-0.865L-0.502,21.635L0.502,23.365Z" style="fill-rule:nonzero;"/>
            </g>
        </g>
    </g>
</svg>
