<?xml version="1.0" encoding="UTF-8" standalone="no"?>
<!DOCTYPE svg PUBLIC "-//W3C//DTD SVG 1.1//EN" "http://www.w3.org/Graphics/SVG/1.1/DTD/svg11.dtd">
<svg width="100%" height="100%" viewBox="0 0 81 81" version="1.1" xmlns="http://www.w3.org/2000/svg" xmlns:xlink="http://www.w3.org/1999/xlink" xml:space="preserve" xmlns:serif="http://www.serif.com/" style="fill-rule:evenodd;clip-rule:evenodd;stroke-linejoin:round;stroke-miterlimit:2;">
    <g transform="matrix(1,0,0,1,-92,-182)">
        <g id="sortable" transform="matrix(0.0520833,0,0,0.0390625,92.6373,182.425)">
            <rect x="0" y="0" width="1536" height="2048" style="fill:none;"/>
            <g transform="matrix(1,0,0,1,-3.0314,80.672)">
                <g transform="matrix(1,0,0,1,23.1463,0)">
                    <g transform="matrix(8.31481,0,0,25.6,-593.116,139.904)">
                        <path d="M156.409,25.642L156.409,43.428C156.409,45.357 152.792,46.923 148.337,46.923L117.321,46.923C112.866,46.923 109.25,45.357 109.25,43.428L109.25,25.642C109.25,23.713 112.866,22.147 117.321,22.147L148.337,22.147C152.792,22.147 156.409,23.713 156.409,25.642Z"/>
                    </g>
                    <g transform="matrix(8.31481,0,0,25.6,-126.073,139.904)">
                        <path d="M156.409,25.642L156.409,43.428C156.409,45.357 152.792,46.923 148.337,46.923L117.321,46.923C112.866,46.923 109.25,45.357 109.25,43.428L109.25,25.642C109.25,23.713 112.866,22.147 117.321,22.147L148.337,22.147C152.792,22.147 156.409,23.713 156.409,25.642Z"/>
                    </g>
                </g>
                <g transform="matrix(8.56923,0,0,13.0519,-597.765,-261.618)">
                    <path d="M139.227,55.356C139.227,57.114 137.597,58.54 135.59,58.54L112.887,58.54C110.88,58.54 109.25,57.114 109.25,55.356C109.25,53.598 110.88,52.172 112.887,52.172L135.59,52.172C137.597,52.172 139.227,53.598 139.227,55.356Z"/>
                </g>
                <g transform="matrix(8.56923,0,0,13.0519,-296.628,-261.618)">
                    <path d="M139.227,55.356C139.227,57.114 137.597,58.54 135.59,58.54L112.887,58.54C110.88,58.54 109.25,57.114 109.25,55.356C109.25,53.598 110.88,52.172 112.887,52.172L135.59,52.172C137.597,52.172 139.227,53.598 139.227,55.356Z"/>
                </g>
                <g transform="matrix(8.56923,0,0,13.0519,10.5721,-261.618)">
                    <path d="M139.227,55.356C139.227,57.114 137.597,58.54 135.59,58.54L112.887,58.54C110.88,58.54 109.25,57.114 109.25,55.356C109.25,53.598 110.88,52.172 112.887,52.172L135.59,52.172C137.597,52.172 139.227,53.598 139.227,55.356Z"/>
                </g>
                <g transform="matrix(8.56923,0,0,13.0519,-597.765,-133.618)">
                    <path d="M139.227,55.356C139.227,57.114 137.597,58.54 135.59,58.54L112.887,58.54C110.88,58.54 109.25,57.114 109.25,55.356C109.25,53.598 110.88,52.172 112.887,52.172L135.59,52.172C137.597,52.172 139.227,53.598 139.227,55.356Z"/>
                </g>
                <g transform="matrix(8.56923,0,0,13.0519,-296.628,-133.618)">
                    <path d="M139.227,55.356C139.227,57.114 137.597,58.54 135.59,58.54L112.887,58.54C110.88,58.54 109.25,57.114 109.25,55.356C109.25,53.598 110.88,52.172 112.887,52.172L135.59,52.172C137.597,52.172 139.227,53.598 139.227,55.356Z"/>
                </g>
            </g>
        </g>
    </g>
</svg>
