<?xml version="1.0" encoding="UTF-8" standalone="no"?>
<!DOCTYPE svg PUBLIC "-//W3C//DTD SVG 1.1//EN" "http://www.w3.org/Graphics/SVG/1.1/DTD/svg11.dtd">
<svg width="100%" height="100%" viewBox="0 0 81 81" version="1.1" xmlns="http://www.w3.org/2000/svg" xmlns:xlink="http://www.w3.org/1999/xlink" xml:space="preserve" xmlns:serif="http://www.serif.com/" style="fill-rule:evenodd;clip-rule:evenodd;stroke-linejoin:round;stroke-miterlimit:2;">
    <g transform="matrix(1,0,0,1,-360,-91)">
        <g id="taskCompletion" transform="matrix(0.0520833,0,0,0.0390625,360.333,91.7056)">
            <rect x="0" y="0" width="1536" height="2048" style="fill:none;"/>
            <g transform="matrix(1,0,0,1,-21.3684,4.83169e-13)">
                <g transform="matrix(19.2,0,0,21.1664,-1782.32,293.019)">
                    <path d="M156.409,26.387L156.409,42.683C156.409,45.023 154.837,46.923 152.902,46.923L112.756,46.923C110.821,46.923 109.25,45.023 109.25,42.683L109.25,26.387C109.25,24.047 110.821,22.147 112.756,22.147L152.902,22.147C154.837,22.147 156.409,24.047 156.409,26.387Z"/>
                </g>
                <g transform="matrix(8.01547,0,0,10.6873,391.79,895.752)">
                    <path d="M12,1C5.966,1 1,5.966 1,12C1,18.034 5.966,23 12,23C18.034,23 23,18.034 23,12C23,5.966 18.034,1 12,1ZM17.707,9.707L10.707,16.707C10.319,17.095 9.681,17.095 9.293,16.707L6.293,13.707C6.113,13.521 6.012,13.271 6.012,13.012C6.012,12.464 6.464,12.012 7.012,12.012C7.271,12.012 7.521,12.113 7.707,12.293L10,14.586L16.293,8.293C16.479,8.113 16.729,8.012 16.988,8.012C17.536,8.012 17.988,8.464 17.988,9.012C17.988,9.271 17.887,9.521 17.707,9.707Z" style="fill:rgb(255,251,251);fill-rule:nonzero;"/>
                </g>
            </g>
        </g>
    </g>
</svg>
