<?xml version="1.0" encoding="UTF-8" standalone="no"?>
<!DOCTYPE svg PUBLIC "-//W3C//DTD SVG 1.1//EN" "http://www.w3.org/Graphics/SVG/1.1/DTD/svg11.dtd">
<svg width="100%" height="100%" viewBox="0 0 81 80" version="1.1" xmlns="http://www.w3.org/2000/svg" xmlns:xlink="http://www.w3.org/1999/xlink" xml:space="preserve" xmlns:serif="http://www.serif.com/" style="fill-rule:evenodd;clip-rule:evenodd;stroke-linejoin:round;stroke-miterlimit:2;">
    <g transform="matrix(1,0,0,1,-93,0)">
        <g id="text" transform="matrix(0.0520833,0,0,0.0390625,93.3829,0)">
            <rect x="0" y="0" width="1536" height="2048" style="fill:none;"/>
            <g transform="matrix(1,0,0,1,0,88.5709)">
                <g transform="matrix(19.2,0,0,25.6,-1782.32,-74.4391)">
                    <path d="M156.409,26.387L156.409,42.683C156.409,45.023 154.508,46.923 152.168,46.923L113.49,46.923C111.15,46.923 109.25,45.023 109.25,42.683L109.25,26.387C109.25,24.047 111.15,22.147 113.49,22.147L152.168,22.147C154.508,22.147 156.409,24.047 156.409,26.387Z"/>
                </g>
                <g transform="matrix(19.2,0,0,25.6,-1782.32,-120.29)">
                    <path d="M139.227,55.356C139.227,57.114 137.8,58.54 136.043,58.54L112.434,58.54C110.676,58.54 109.25,57.114 109.25,55.356C109.25,53.598 110.676,52.172 112.434,52.172L136.043,52.172C137.8,52.172 139.227,53.598 139.227,55.356Z"/>
                </g>
            </g>
        </g>
    </g>
</svg>
