<?xml version="1.0" encoding="UTF-8" standalone="no"?>
<!DOCTYPE svg PUBLIC "-//W3C//DTD SVG 1.1//EN" "http://www.w3.org/Graphics/SVG/1.1/DTD/svg11.dtd">
<svg width="100%" height="100%" viewBox="0 0 81 81" version="1.1" xmlns="http://www.w3.org/2000/svg" xmlns:xlink="http://www.w3.org/1999/xlink" xml:space="preserve" xmlns:serif="http://www.serif.com/" style="fill-rule:evenodd;clip-rule:evenodd;stroke-linejoin:round;stroke-miterlimit:2;">
    <g transform="matrix(1,0,0,1,-93,-91)">
        <g id="timer" transform="matrix(0.0520833,0,0,0.0390625,93.4841,91.7056)">
            <rect x="0" y="0" width="1536" height="2048" style="fill:none;"/>
            <g transform="matrix(23.4637,0,0,31.2849,570.804,-139.038)">
                <g>
                    <g transform="matrix(1,0,0,1,-119.996,-93.132)">
                        <path d="M148.035,130.308C148.035,135.783 143.59,140.229 138.114,140.229L118.687,140.229C113.211,140.229 108.766,135.783 108.766,130.308C108.766,124.832 113.211,120.386 118.687,120.386L138.114,120.386C143.59,120.386 148.035,124.832 148.035,130.308Z"/>
                    </g>
                    <g transform="matrix(0.143868,0,0,0.143868,-6.01753,31.9588)">
                        <g>
                            <path d="M40.359,1.877L40.359,3.396C40.359,4.423 39.533,5.252 38.519,5.252L37.875,5.252L37.875,8.228C31.554,6.909 26.125,8.228 26.125,8.228L26.125,5.252L25.481,5.252C24.468,5.252 23.64,4.423 23.64,3.396L23.64,1.877C23.64,0.85 24.468,0.036 25.481,0.036L38.52,0.036C39.533,0.036 40.359,0.85 40.359,1.877Z" style="fill:white;fill-rule:nonzero;"/>
                            <path d="M55.332,12.794L47.059,7.012C46.549,6.657 46.211,6.873 46.032,7.072L45.884,7.285L43.818,10.242C43.818,10.242 49.033,12.279 53.459,16.978L55.537,14.004C56.012,13.316 55.395,12.84 55.332,12.794Z" style="fill:white;fill-rule:nonzero;"/>
                            <path d="M32.001,10.277C17.175,10.277 5.158,22.295 5.158,37.121C5.158,51.944 17.176,63.964 32.001,63.964C46.824,63.964 58.842,51.944 58.842,37.121C58.842,22.295 46.824,10.277 32.001,10.277ZM32.001,37.121L32.001,15.892C32.001,15.892 51.941,15.559 53.229,37.121C38.9,37.075 32.001,37.121 32.001,37.121Z" style="fill:white;fill-rule:nonzero;"/>
                        </g>
                    </g>
                </g>
            </g>
        </g>
    </g>
</svg>
