<svg id="Ebene_1" data-name="Ebene 1" xmlns="http://www.w3.org/2000/svg" viewBox="0 0 320.31 118.78"><defs><style>.cls-1{fill:#fff;}</style></defs><title>NextMedia_Logo_rz</title><path class="cls-1" d="M37.66.26C17.1.26.38,16.87.49,37.21L.71,80.88h16.5V37.21a20.4,20.4,0,1,1,40.8,0V80.88H74.72V37.21A37.05,37.05,0,0,0,37.66.26Z"/><rect class="cls-1" x="225.96" y="9.25" width="29.86" height="14.46" transform="translate(58.89 175.15) rotate(-45)"/><rect class="cls-1" x="247.43" y="33.59" width="27.26" height="14.52"/><rect class="cls-1" x="234.05" y="50.11" width="14.47" height="30.97" transform="translate(24.28 189.81) rotate(-45)"/><path class="cls-1" d="M186.73.82,176.51,11.05,199,33.58H168a40.89,40.89,0,1,0-10.77,36.3l-12.1-11a24.72,24.72,0,1,1,6.16-25.3H118.24V48.1H199L175.69,71.45l10.22,10.23,40.84-40.83Z"/><path class="cls-1" d="M319.45,66a20.43,20.43,0,0,1-18.31-20.46V32.73h18.31V18.21H301.14V1.14H284.42V45.49a37.06,37.06,0,0,0,35,36.89Z"/><polygon class="cls-1" points="33.85 111.9 39.55 111.9 39.55 109.3 33.85 109.3 33.85 106.03 42.11 106.03 42.11 103.3 31 103.3 31 118.16 42.28 118.16 42.28 115.35 33.85 115.35 33.85 111.9"/><rect class="cls-1" x="124.3" y="114.98" width="3.18" height="3.18"/><path class="cls-1" d="M234.8,110a3.46,3.46,0,0,0,1-2.51,4.19,4.19,0,0,0-4.19-4.21h-5.76v14.86h6.45a4.51,4.51,0,0,0,4.52-4.51A4.14,4.14,0,0,0,234.8,110Zm-6.33-4.14h3.23a1.61,1.61,0,0,1,0,3.21h-3.23Zm3.83,9.74h-3.74v-3.93h3.74a2,2,0,0,1,0,3.93Z"/><path class="cls-1" d="M260.84,112.19a3.41,3.41,0,1,1-6.81,0V103.3H251.1v8.89a6.34,6.34,0,0,0,12.67,0V103.3h-2.93Z"/><path class="cls-1" d="M290.9,107.76a4.33,4.33,0,0,0-4.4-4.46h-6.2v14.86H283v-5.8h1.72l3,5.8h3.41l-3.76-6A4.56,4.56,0,0,0,290.9,107.76Zm-7.93,2v-4h3.51a2,2,0,0,1,0,4Z"/><path class="cls-1" d="M311.88,109.88v2.6h4.85c-.5,1.94-2,3.33-4.85,3.33a5.07,5.07,0,1,1,4-8.12l2.23-1.45a7.74,7.74,0,1,0,1.45,4.51v-.87Z"/><polygon class="cls-1" points="204.18 112.65 203.51 114.48 202.78 112.58 199 103.3 195.44 103.3 195.44 118.16 198.29 118.16 198.29 110.05 198.23 108.21 198.91 110.09 202.18 118.16 204.7 118.16 207.92 110.13 208.65 108.19 208.59 110.13 208.59 118.16 211.44 118.16 211.44 103.3 207.88 103.3 204.18 112.65"/><path class="cls-1" d="M174.25,103.3l-5.58,14.86h3.1l1-3h6.12l1,3H183l-5.57-14.86Zm-.58,9.37,2.22-6.41,2.17,6.41Z"/><polygon class="cls-1" points="149.1 109.23 142.25 109.23 142.25 103.3 139.4 103.3 139.4 118.16 142.25 118.16 142.25 111.88 149.1 111.88 149.1 118.16 151.95 118.16 151.95 103.3 149.1 103.3 149.1 109.23"/><polygon class="cls-1" points="9.45 112.65 8.79 114.48 8.06 112.58 4.27 103.3 0.71 103.3 0.71 118.16 3.56 118.16 3.56 110.05 3.5 108.21 4.19 110.09 7.45 118.16 9.97 118.16 13.2 110.13 13.93 108.19 13.86 110.13 13.86 118.16 16.72 118.16 16.72 103.3 13.16 103.3 9.45 112.65"/><path class="cls-1" d="M62.61,103.3h-6v14.86h6a7.43,7.43,0,1,0,0-14.86Zm.25,12.11h-3.5v-9.36h3.5a4.69,4.69,0,0,1,0,9.36Z"/><rect class="cls-1" x="83.01" y="103.3" width="3.27" height="14.86"/><path class="cls-1" d="M104.83,103.3l-5.58,14.86h3.1l1-3h6.12l1,3h3.12L108,103.3Zm-.59,9.37,2.23-6.41,2.17,6.41Z"/></svg>